<svg xmlns="http://www.w3.org/2000/svg" width="54.458" height="44.673" viewBox="0 0 54.458 44.673">
  <g id="_024-monitor-2" data-name="024-monitor-2" transform="translate(0 -46)">
    <g id="Group_192" data-name="Group 192" transform="translate(0 46)">
      <g id="Group_191" data-name="Group 191">
        <path id="Path_2255" data-name="Path 2255" d="M51.268,46H3.191A3.194,3.194,0,0,0,0,49.191V78.973a3.194,3.194,0,0,0,3.191,3.191h17.89l-1.8,7.187a1.064,1.064,0,0,0,1.032,1.322h13.83a1.064,1.064,0,0,0,1.013-1.39l-1.78-7.12h17.89a3.2,3.2,0,0,0,3.191-3.191V49.191A3.2,3.2,0,0,0,51.268,46ZM21.678,88.546l1.6-6.382h7.912l1.6,6.382Zm30.653-9.573a1.065,1.065,0,0,1-1.064,1.064H3.191a1.065,1.065,0,0,1-1.064-1.064V77.909h50.2Zm0-3.191H2.127V49.191a1.065,1.065,0,0,1,1.064-1.063H51.268a1.065,1.065,0,0,1,1.064,1.064Z" transform="translate(0 -46)" fill="#6560ee"/>
      </g>
    </g>
    <g id="Group_194" data-name="Group 194" transform="translate(26.549 51.376)">
      <g id="Group_193" data-name="Group 193" transform="translate(0 0)">
        <path id="Path_2256" data-name="Path 2256" d="M267.683,99.961a4.238,4.238,0,0,1-3.753-2.627,1.064,1.064,0,0,0-1.027-.788h-7.457a1.064,1.064,0,0,0-1.027.788,4.237,4.237,0,0,1-3.753,2.627,1.064,1.064,0,0,0-1.064,1.064v4.27a12.628,12.628,0,0,0,4.149,9.456c1.966,1.823,4.346,2.952,5.424,2.952s3.457-1.129,5.424-2.952a12.629,12.629,0,0,0,4.149-9.456v-4.27A1.064,1.064,0,0,0,267.683,99.961Zm-1.064,5.333a10.95,10.95,0,0,1-7.446,10.279,10.95,10.95,0,0,1-7.446-10.279v-3.32a6.533,6.533,0,0,0,4.451-3.3h5.989a6.533,6.533,0,0,0,4.451,3.3Z" transform="translate(-249.601 -96.546)" fill="#6560ee"/>
      </g>
    </g>
    <g id="Group_196" data-name="Group 196" transform="translate(4.633 58.764)">
      <g id="Group_195" data-name="Group 195">
        <path id="Path_2257" data-name="Path 2257" d="M56.9,166H44.623a1.064,1.064,0,0,0,0,2.127H56.9a1.064,1.064,0,1,0,0-2.127Z" transform="translate(-43.559 -166.001)" fill="#6560ee"/>
      </g>
    </g>
    <g id="Group_198" data-name="Group 198" transform="translate(4.633 63.018)">
      <g id="Group_197" data-name="Group 197">
        <path id="Path_2258" data-name="Path 2258" d="M56.9,206H44.623a1.064,1.064,0,1,0,0,2.127H56.9a1.064,1.064,0,1,0,0-2.127Z" transform="translate(-43.559 -206.001)" fill="#6560ee"/>
      </g>
    </g>
    <g id="Group_200" data-name="Group 200" transform="translate(4.633 67.273)">
      <g id="Group_199" data-name="Group 199">
        <path id="Path_2259" data-name="Path 2259" d="M60.135,246H44.623a1.064,1.064,0,0,0,0,2.127H60.135a1.064,1.064,0,1,0,0-2.127Z" transform="translate(-43.559 -246)" fill="#6560ee"/>
      </g>
    </g>
    <g id="Group_202" data-name="Group 202" transform="translate(12.134 71.527)">
      <g id="Group_201" data-name="Group 201">
        <path id="Path_2260" data-name="Path 2260" d="M115.2,286h-.051a1.064,1.064,0,1,0,0,2.127h.051a1.064,1.064,0,1,0,0-2.127Z" transform="translate(-114.082 -286)" fill="#6560ee"/>
      </g>
    </g>
    <g id="Group_204" data-name="Group 204" transform="translate(4.633 71.527)">
      <g id="Group_203" data-name="Group 203">
        <path id="Path_2261" data-name="Path 2261" d="M49.03,286H44.623a1.064,1.064,0,0,0,0,2.127H49.03a1.064,1.064,0,1,0,0-2.127Z" transform="translate(-43.559 -286)" fill="#6560ee"/>
      </g>
    </g>
    <g id="Group_206" data-name="Group 206" transform="translate(4.633 50.255)">
      <g id="Group_205" data-name="Group 205" transform="translate(0 0)">
        <path id="Path_2262" data-name="Path 2262" d="M49.03,86H44.623a1.064,1.064,0,0,0,0,2.127H49.03a1.064,1.064,0,1,0,0-2.127Z" transform="translate(-43.559 -86.001)" fill="#6560ee"/>
      </g>
    </g>
    <g id="Group_208" data-name="Group 208" transform="translate(12.134 50.255)">
      <g id="Group_207" data-name="Group 207" transform="translate(0 0)">
        <path id="Path_2263" data-name="Path 2263" d="M115.2,86h-.051a1.064,1.064,0,0,0,0,2.127h.051a1.064,1.064,0,0,0,0-2.127Z" transform="translate(-114.082 -86.001)" fill="#6560ee"/>
      </g>
    </g>
  </g>
</svg>
