<svg xmlns="http://www.w3.org/2000/svg" width="24.328" height="11.333" viewBox="0 0 24.328 11.333">
  <g id="Battery" transform="translate(0 -0.333)">
    <g id="Border" transform="translate(0 0.333)" fill="none" opacity="0.35">
      <path d="M2.667,0H19.333A2.667,2.667,0,0,1,22,2.667v6a2.667,2.667,0,0,1-2.667,2.667H2.667A2.667,2.667,0,0,1,0,8.667v-6A2.667,2.667,0,0,1,2.667,0Z" stroke="none"/>
      <path d="M 2.666669845581055 0.9999961853027344 C 1.747669219970703 0.9999961853027344 1 1.747666358947754 1 2.666666984558105 L 1 8.666666030883789 C 1 9.585666656494141 1.747669219970703 10.33333683013916 2.666669845581055 10.33333683013916 L 19.33333015441895 10.33333683013916 C 20.2523307800293 10.33333683013916 21 9.585666656494141 21 8.666666030883789 L 21 2.666666984558105 C 21 1.747666358947754 20.2523307800293 0.9999961853027344 19.33333015441895 0.9999961853027344 L 2.666669845581055 0.9999961853027344 M 2.666669845581055 -3.814697265625e-06 L 19.33333015441895 -3.814697265625e-06 C 20.80608940124512 -3.814697265625e-06 22 1.193906784057617 22 2.666666984558105 L 22 8.666666030883789 C 22 10.13942623138428 20.80608940124512 11.33333683013916 19.33333015441895 11.33333683013916 L 2.666669845581055 11.33333683013916 C 1.193910598754883 11.33333683013916 0 10.13942623138428 0 8.666666030883789 L 0 2.666666984558105 C 0 1.193906784057617 1.193910598754883 -3.814697265625e-06 2.666669845581055 -3.814697265625e-06 Z" stroke="none" fill="#fff"/>
    </g>
    <path id="Cap" d="M0,0V4A2.17,2.17,0,0,0,1.328,2,2.17,2.17,0,0,0,0,0" transform="translate(23 4)" fill="#153243" opacity="0.4"/>
    <rect id="Capacity" width="18" height="7.333" rx="1.333" transform="translate(2 2.333)" fill="#153243"/>
  </g>
</svg>
