<svg xmlns="http://www.w3.org/2000/svg" width="126.926" height="118.728" viewBox="0 0 126.926 118.728">
  <g id="cell" transform="translate(13.227 58.638)">
    <g id="Group_315" data-name="Group 315" transform="translate(75.715 -58.638) rotate(62)">
      <path id="Path_2458" data-name="Path 2458" d="M115.773,64.68c6.189-8.146,3.848-18.611,1.008-24.059-2.4-4.6-10.186-13.882-21.582-12.91C101.314,18.952,98.3,6.55,95.07,0L90.51,2.245c.391.8,9.429,19.677-4.708,27.051-14.179,7.4-24.884-10.663-25.334-11.432l-4.4,2.542C59.7,26.7,68.3,36.082,78.978,36.108c-6.389,7.437-5.249,17.16-1.224,24.877,2.947,5.644,9.739,12.994,19.5,12.938-5.321,8.689-2.382,20.484.734,26.811l4.56-2.246c-.392-.8-9.428-19.674,4.707-27.051,14.181-7.4,24.885,10.659,25.331,11.431l4.4-2.544C133.545,74.375,125.666,65.621,115.773,64.68ZM82.26,58.635C79.748,53.821,75.347,41.871,88.7,34.9c15.02-7.837,23.49,7.911,23.573,8.068.336.648,8.082,15.9-6.549,23.531C91.244,74.057,83.636,61.274,82.26,58.635Z" transform="translate(-56.073 0)" fill="#2a85e6"/>
      <path id="Path_2459" data-name="Path 2459" d="M263.521,316.691l11.177-5.83a11.5,11.5,0,0,0,2.29-5.739L257.34,315.374A11.417,11.417,0,0,0,263.521,316.691Z" transform="translate(-221.757 -251.177)" fill="#2a85e6"/>
      <path id="Path_2460" data-name="Path 2460" d="M249.636,261.567l-24.28,12.668a18.268,18.268,0,0,0,2.684,3.142l22.592-11.789A19.269,19.269,0,0,0,249.636,261.567Z" transform="translate(-195.427 -215.323)" fill="#2a85e6"/>
      <path id="Path_2461" data-name="Path 2461" d="M232.79,228.708l-23.279,12.147a21.309,21.309,0,0,0,1.372,3.827l24.471-12.768A20.281,20.281,0,0,0,232.79,228.708Z" transform="translate(-182.384 -188.273)" fill="#2a85e6"/>
      <path id="Path_2462" data-name="Path 2462" d="M222.933,204.734,207.862,212.6a11.407,11.407,0,0,0-1.019,5.075l21.005-10.963A12.779,12.779,0,0,0,222.933,204.734Z" transform="translate(-180.186 -168.538)" fill="#2a85e6"/>
      <path id="Path_2463" data-name="Path 2463" d="M152.96,104.24l11.177-5.835a11.455,11.455,0,0,0,2.292-5.735l-19.648,10.253A11.486,11.486,0,0,0,152.96,104.24Z" transform="translate(-130.744 -76.286)" fill="#2a85e6"/>
      <path id="Path_2464" data-name="Path 2464" d="M140.058,53.141a18.986,18.986,0,0,0-1-4.021L114.785,61.787a18.357,18.357,0,0,0,2.683,3.141Z" transform="translate(-104.405 -40.436)" fill="#2a85e6"/>
      <path id="Path_2465" data-name="Path 2465" d="M317.115,449.805a21.359,21.359,0,0,0,1.369,3.825l24.472-12.767a20.337,20.337,0,0,0-2.564-3.206Z" transform="translate(-270.963 -360.281)" fill="#2a85e6"/>
      <path id="Path_2466" data-name="Path 2466" d="M330.545,413.672l-15.075,7.866a11.438,11.438,0,0,0-1.016,5.071l21-10.958A12.719,12.719,0,0,0,330.545,413.672Z" transform="translate(-268.772 -340.536)" fill="#2a85e6"/>
    </g>
  </g>
</svg>
