<svg id="credit-card" xmlns="http://www.w3.org/2000/svg" width="42.782" height="32.087" viewBox="0 0 42.782 32.087">
  <path id="Path_346" data-name="Path 346" d="M4,9.783A1.783,1.783,0,0,1,5.783,8h7.13a1.783,1.783,0,0,1,0,3.565H5.783A1.783,1.783,0,0,1,4,9.783Z" transform="translate(3.13 0.913)" fill="#1b2a3b"/>
  <path id="Path_347" data-name="Path 347" d="M7.13,3A7.13,7.13,0,0,0,0,10.13V27.956a7.13,7.13,0,0,0,7.13,7.13H35.652a7.13,7.13,0,0,0,7.13-7.13V10.13A7.13,7.13,0,0,0,35.652,3ZM35.652,6.565H7.13A3.565,3.565,0,0,0,3.565,10.13V22.609H39.217V10.13A3.565,3.565,0,0,0,35.652,6.565Zm3.565,19.609H3.565v1.783A3.565,3.565,0,0,0,7.13,31.522H35.652a3.565,3.565,0,0,0,3.565-3.565Z" transform="translate(0 -3)" fill="#1b2a3b" fill-rule="evenodd"/>
</svg>
