<svg xmlns="http://www.w3.org/2000/svg" width="181.859" height="216.289" viewBox="0 0 181.859 216.289">
  <g id="Group_779" data-name="Group 779" transform="translate(-692.789 -336.381)">
    <g id="Group_374" data-name="Group 374" transform="translate(812.434 485.552)">
      <g id="Group_371" data-name="Group 371">
        <g id="Group_370" data-name="Group 370" transform="translate(0.409 0)">
          <path id="Path_2495" data-name="Path 2495" d="M1500.626,1405.253s27.672-13.644,32.431-20.761-2.237-7.519-2.237-7.519,12.349-12.01,10.612-17.066-8.135-.419-8.135-.419,7.94-17.676,4.2-19.452c-6.974-3.31-16.756,15.708-16.756,15.708s2.1-8.262-2.7-7.993c-7.242.4-6.943,19.093-6.943,19.093s-.818-7.166-5.183-4.838C1498.081,1366.182,1500.626,1405.253,1500.626,1405.253Z" transform="translate(-1500.231 -1339.649)" fill="#355389"/>
        </g>
        <path id="Path_2496" data-name="Path 2496" d="M1501.994,1359.114c3.408-1.891,6.8,3.637,6.8,3.637s-.344-14.6,6.9-15c4.8-.269,2.7,7.993,2.7,7.993s9.783-19.017,16.756-15.708l-36.9,64.914C1497.991,1400.416,1495.242,1362.861,1501.994,1359.114Z" transform="translate(-1497.479 -1339.648)" fill="#466eb6"/>
      </g>
      <g id="Group_373" data-name="Group 373" transform="translate(1.451 34.532)">
        <g id="Group_372" data-name="Group 372" transform="translate(0.069 2.128)">
          <path id="Path_2497" data-name="Path 2497" d="M1507.7,1615.321s22.632,2.811,28.492.306,1.66-5.6,1.66-5.6,12.583-2.473,13.553-6.333-4.833-3.552-4.833-3.552,12.065-7.813,10.452-10.443c-3-4.9-16.834,2.989-16.834,2.989s4.668-4.3,1.564-6.083c-4.682-2.69-12.089,9.088-12.089,9.088s.46-2.9-3.208-3.225C1519.872,1591.893,1507.7,1615.321,1507.7,1615.321Z" transform="translate(-1507.697 -1586.208)" fill="#355389"/>
        </g>
        <path id="Path_2498" data-name="Path 2498" d="M1525.912,1578.176c3.668.322,3.357,5.334,3.357,5.334s7.541-13.962,12.223-11.271c3.1,1.783-.569,7.642-.569,7.642s12.7-7.263,15.705-2.365l-49.393,25.495C1508.914,1600.078,1519.764,1577.637,1525.912,1578.176Z" transform="translate(-1507.235 -1571.895)" fill="#466eb6"/>
      </g>
    </g>
    <g id="Group_379" data-name="Group 379" transform="translate(704.609 484.839)">
      <g id="Group_376" data-name="Group 376" transform="translate(9.212)">
        <g id="Group_375" data-name="Group 375">
          <path id="Path_2499" data-name="Path 2499" d="M875.216,1400.455s-27.672-13.644-32.431-20.76,2.237-7.519,2.237-7.519-12.349-12.01-10.612-17.066,8.221-.225,8.221-.225-8.027-17.87-4.282-19.646c6.973-3.31,16.756,15.708,16.756,15.708s-2.1-8.262,2.7-7.993c7.242.4,6.943,19.093,6.943,19.093s.818-7.166,5.183-4.838C877.761,1361.384,875.216,1400.455,875.216,1400.455Z" transform="translate(-834.242 -1334.851)" fill="#355389"/>
        </g>
        <path id="Path_2500" data-name="Path 2500" d="M895.013,1354.317c-3.408-1.891-6.8,3.637-6.8,3.637s.344-14.6-6.9-15c-4.8-.269-2.7,7.993-2.7,7.993s-9.783-19.018-16.756-15.708l36.9,64.914C899.016,1395.618,901.765,1358.064,895.013,1354.317Z" transform="translate(-857.75 -1334.851)" fill="#466eb6"/>
      </g>
      <g id="Group_378" data-name="Group 378" transform="translate(0 34.442)">
        <g id="Group_377" data-name="Group 377" transform="translate(0 2.218)">
          <path id="Path_2501" data-name="Path 2501" d="M821.756,1610.524s-22.632,2.811-28.492.306-1.66-5.6-1.66-5.6-12.583-2.473-13.554-6.333,5.036-3.48,5.036-3.48-12.268-7.885-10.654-10.514c3-4.9,16.834,2.989,16.834,2.989s-4.668-4.3-1.564-6.082c4.682-2.69,12.089,9.088,12.089,9.088s-.46-2.9,3.208-3.225C809.581,1587.1,821.756,1610.524,821.756,1610.524Z" transform="translate(-772.286 -1581.411)" fill="#355389"/>
        </g>
        <path id="Path_2502" data-name="Path 2502" d="M803.45,1571.041a3.835,3.835,0,0,0-3.611,3.885s-6.752-10.69-11.434-8c-3.1,1.784.568,7.642.568,7.642s-12.7-7.263-15.7-2.365l49.393,25.5C820.982,1594.765,809.6,1570.5,803.45,1571.041Z" transform="translate(-773.123 -1566.492)" fill="#466eb6"/>
      </g>
    </g>
    <g id="Group_380" data-name="Group 380" transform="translate(814.875 342.378)">
      <path id="Path_2503" data-name="Path 2503" d="M1540.8,393.005l-7.3,2.595a1.2,1.2,0,0,0-.756.822l-2,7.5a1.2,1.2,0,0,1-2.109.42l-4.726-6.163a1.2,1.2,0,0,0-1.014-.469l-7.737.4a1.2,1.2,0,0,1-1.053-1.882l4.378-6.4a1.206,1.206,0,0,0,.13-1.112l-2.784-7.255a1.2,1.2,0,0,1,1.458-1.583l7.432,2.206a1.2,1.2,0,0,0,1.094-.218l6.016-4.887a1.2,1.2,0,0,1,1.954.9l.215,7.767a1.205,1.205,0,0,0,.547.977l6.5,4.235A1.2,1.2,0,0,1,1540.8,393.005Z" transform="translate(-1513.891 -376.711)" fill="#f7cc7f"/>
    </g>
    <path id="Path_2504" data-name="Path 2504" d="M933.3,1551.507a5.145,5.145,0,0,0-5.7-3.4,5.377,5.377,0,0,0-3.37-2.406c-2.691-.576-6.329.486-6.23,3.335-1.044,1.914-1.084,4.649.513,6.105-.556,2.573,1.854,5.062,4.988,4.971a5.539,5.539,0,0,0,5.237,2.71,12.523,12.523,0,0,1,1.378-.152c-.157-.029,3.321,2.637,6.268-1.463C939.388,1557.018,937.275,1551.953,933.3,1551.507Z" transform="translate(-191.092 -1029.379)" fill="#355389"/>
    <g id="Group_381" data-name="Group 381" transform="translate(777.512 351.782)">
      <path id="Path_2505" data-name="Path 2505" d="M1358.145,611.151a2.017,2.017,0,0,1-1.356.333,2.543,2.543,0,0,1-.909-.389,2.556,2.556,0,0,0,.852.9C1357.609,612.466,1358.145,611.151,1358.145,611.151Z" transform="translate(-1342.011 -585.649)" fill="#f47458"/>
      <path id="Path_2506" data-name="Path 2506" d="M1264.272,461.985l6.784-1.4a1.043,1.043,0,0,1,.956.3l4.96,5.043a1.06,1.06,0,0,0,1.81-.667l.81-7.171a1.116,1.116,0,0,1,.564-.857l6.118-3.358a1.14,1.14,0,0,0-.052-2l-6.283-3.032a1.116,1.116,0,0,1-.607-.826l-1.179-7.119a1.059,1.059,0,0,0-1.841-.571l-4.693,5.3a1.044,1.044,0,0,1-.939.346l-6.847-1.041a1.109,1.109,0,0,0-1.086,1.651l3.383,6.306a1.162,1.162,0,0,1,.027,1.04l-3.052,6.475A1.108,1.108,0,0,0,1264.272,461.985Z" transform="translate(-1262.605 -439.961)" fill="#f7cc7f"/>
    </g>
    <g id="Group_384" data-name="Group 384" transform="translate(718.25 382.225)">
      <path id="Path_2507" data-name="Path 2507" d="M1495.256,678.232a7.153,7.153,0,0,1-.74,2.3q-1.073,1.3-2.031,2.67c.441-.032.885-.052,1.333-.052a16.881,16.881,0,0,1,11.557,4.373,11.924,11.924,0,0,1,0,18.2,17.456,17.456,0,0,1-23.089.022c-.221.655-.442,1.306-.662,1.96a5.089,5.089,0,0,0-2.532,4.6c0,2.754,1.848,4.986,4.128,4.986a4.259,4.259,0,0,0,3.885-3.313,21.207,21.207,0,0,0,6.714,1.085c10.981,0,19.884-8.254,19.884-18.437C1513.7,686.882,1505.565,678.916,1495.256,678.232Z" transform="translate(-1387.641 -673.247)" fill="#e0973f"/>
      <path id="Path_2508" data-name="Path 2508" d="M882.477,678.232a7.147,7.147,0,0,0,.74,2.3q1.072,1.3,2.031,2.67c-.441-.032-.885-.052-1.333-.052a16.881,16.881,0,0,0-11.557,4.373,11.924,11.924,0,0,0,0,18.2,17.456,17.456,0,0,0,23.089.022c.221.655.442,1.306.662,1.96a5.089,5.089,0,0,1,2.532,4.6c0,2.754-1.848,4.986-4.128,4.986a4.259,4.259,0,0,1-3.885-3.313,21.205,21.205,0,0,1-6.714,1.085c-10.981,0-19.884-8.254-19.884-18.437C864.032,686.882,872.168,678.916,882.477,678.232Z" transform="translate(-864.032 -673.247)" fill="#e0973f"/>
      <path id="Path_2509" data-name="Path 2509" d="M1065.924,664.112v5.09a41.659,41.659,0,0,1-41.656,41.656c-10.6-.141-17.865.955-27.924-3.5A41.668,41.668,0,0,1,971.414,669.2v-5.09Z" transform="translate(-955.448 -661.227)" fill="#f7cc7f"/>
      <path id="Path_2510" data-name="Path 2510" d="M1067.025,707.359l.032.014,14.974-43.261h-15.587l-12,34.681A41.711,41.711,0,0,0,1067.025,707.359Z" transform="translate(-1026.13 -661.227)" fill="#fae0b2"/>
      <path id="Path_2511" data-name="Path 2511" d="M1163.465,710.278l15.8-46.166h-7.83L1156.281,708.4A37.777,37.777,0,0,0,1163.465,710.278Z" transform="translate(-1112.828 -661.227)" fill="#fae0b2"/>
      <path id="Path_2512" data-name="Path 2512" d="M1029.357,697.208l11.817-33.1h-3.722l-10.691,29.945Q1027.983,695.7,1029.357,697.208Z" transform="translate(-1002.565 -661.227)" fill="#fae0b2"/>
      <path id="Path_2513" data-name="Path 2513" d="M1053.12,644.708H967.1c-3.14,0-5.7,1.747-5.879,3.949H1059C1058.819,646.455,1056.26,644.708,1053.12,644.708Z" transform="translate(-946.77 -644.708)" fill="#f7cc7f"/>
      <path id="Path_2514" data-name="Path 2514" d="M1181.816,970.312l4.867,24.985h21.283l6.03-24.985Z" transform="translate(-1134.566 -921.899)" fill="#f7cc7f"/>
      <path id="Path_2515" data-name="Path 2515" d="M1214,970.324l-1.36,5.638h-29.72l-1.1-5.638Z" transform="translate(-1134.57 -921.909)" fill="#b75742"/>
      <path id="Path_2516" data-name="Path 2516" d="M1214,1203.174h-32.18l2.413-12.4,2.452-12.584h21.287l3.039,12.584Z" transform="translate(-1134.57 -1098.868)" fill="#f7cc7f"/>
      <path id="Path_2517" data-name="Path 2517" d="M1214,1275.226h-32.18l2.413-12.4h26.777Z" transform="translate(-1134.57 -1170.92)" fill="#b75742"/>
      <path id="Rectangle_1130" data-name="Rectangle 1130" d="M2.961,0h27.42a2.961,2.961,0,0,1,2.961,2.961v0a2.961,2.961,0,0,1-2.961,2.961H2.961A2.961,2.961,0,0,1,0,2.961v0A2.961,2.961,0,0,1,2.961,0Z" transform="translate(46.087 73.398)" fill="#fae0b2"/>
      <g id="Group_382" data-name="Group 382" transform="translate(31.231 94.457)">
        <path id="Rectangle_1131" data-name="Rectangle 1131" d="M8.159,0H29.851A8.159,8.159,0,0,1,38.01,8.159v0a0,0,0,0,1,0,0H0a0,0,0,0,1,0,0v0A8.159,8.159,0,0,1,8.159,0Z" transform="translate(12.562)" fill="#f7cc7f"/>
        <path id="Path_2518" data-name="Path 2518" d="M1137.211,1338v2.482h-63.133V1338c0-2.86,1.746-5.182,3.9-5.182h55.34C1135.465,1332.814,1137.211,1335.135,1137.211,1338Z" transform="translate(-1074.078 -1324.959)" fill="#f7cc7f"/>
        <path id="Path_2519" data-name="Path 2519" d="M1147.525,1332.814l-2,7.664h-2.635l2-7.664Z" transform="translate(-1132.661 -1324.959)" fill="#fae0b2"/>
        <path id="Path_2520" data-name="Path 2520" d="M1122.135,1332.814l-2,7.664H1117.5l2-7.664Z" transform="translate(-1111.043 -1324.959)" fill="#fae0b2"/>
        <path id="Path_2521" data-name="Path 2521" d="M1170.063,1332.814l-2,7.664h-2.638l2-7.664Z" transform="translate(-1151.845 -1324.959)" fill="#fae0b2"/>
      </g>
      <g id="Group_383" data-name="Group 383" transform="translate(12.079 161.494)">
        <path id="Path_2522" data-name="Path 2522" d="M1051.06,1736.039v2.482H945.269v-2.482c0-2.86,2.925-5.182,6.529-5.182h92.732C1048.135,1730.857,1051.06,1733.178,1051.06,1736.039Z" transform="translate(-945.269 -1730.857)" fill="#f7cc7f"/>
        <path id="Path_2523" data-name="Path 2523" d="M1068.342,1730.857l-3.347,7.664h-4.415l3.347-7.664Z" transform="translate(-1043.435 -1730.857)" fill="#fae0b2"/>
        <path id="Path_2524" data-name="Path 2524" d="M1025.8,1730.857l-3.347,7.664h-4.421l3.353-7.664Z" transform="translate(-1007.211 -1730.857)" fill="#fae0b2"/>
        <path id="Path_2525" data-name="Path 2525" d="M1106.11,1730.857l-3.347,7.664h-4.421l3.352-7.664Z" transform="translate(-1075.583 -1730.857)" fill="#fae0b2"/>
      </g>
      <path id="Path_2526" data-name="Path 2526" d="M1161.438,938.563v1.873a5.867,5.867,0,0,1-5.865,5.87h-42.379a5.868,5.868,0,0,1-5.87-5.87v-1.873Z" transform="translate(-1071.15 -894.871)" fill="#f7cc7f"/>
      <path id="Path_2527" data-name="Path 2527" d="M1102.235,1435.883h-79.61l.971-51.518h77.572Z" transform="translate(-999.044 -1274.388)" fill="#3c8f7c"/>
      <path id="Path_2528" data-name="Path 2528" d="M1191.7,1435.883h-41.747l.509-51.518h40.678Z" transform="translate(-1107.441 -1274.388)" fill="#50bfa5"/>
    </g>
    <path id="Path_2529" data-name="Path 2529" d="M1595.032,1035.829a15.524,15.524,0,0,0-7.732,3.961,27.625,27.625,0,0,0-5.246,8.537l6.726,1.961S1586.092,1044.016,1595.032,1035.829Z" transform="translate(-757.045 -595.45)" fill="#fae0b2"/>
    <path id="Path_2530" data-name="Path 2530" d="M1653.8,986.994l-.482-3.789-3.394-1.751a.525.525,0,0,1,.017-.941l3.454-1.629.616-3.769a.525.525,0,0,1,.9-.275l2.617,2.781,3.775-.578a.525.525,0,0,1,.539.771l-1.837,3.348,1.717,3.411a.525.525,0,0,1-.567.752l-3.752-.712-2.714,2.687A.525.525,0,0,1,1653.8,986.994Z" transform="translate(-814.585 -543.389)" fill="#f7cc7f"/>
    <path id="Path_2531" data-name="Path 2531" d="M882.379,1171.476a15.523,15.523,0,0,1,7.732,3.961,27.623,27.623,0,0,1,5.246,8.536l-6.726,1.962S891.319,1179.663,882.379,1171.476Z" transform="translate(-161.401 -710.928)" fill="#fae0b2"/>
    <path id="Path_2532" data-name="Path 2532" d="M827.667,1122.641l.482-3.789,3.394-1.751a.525.525,0,0,0-.017-.941l-3.454-1.629-.616-3.769a.525.525,0,0,0-.9-.275l-2.617,2.782-3.775-.578a.525.525,0,0,0-.54.771l1.837,3.349-1.717,3.411a.525.525,0,0,0,.567.751l3.752-.712,2.714,2.687A.525.525,0,0,0,827.667,1122.641Z" transform="translate(-107.921 -658.867)" fill="#f7cc7f"/>
    <path id="Path_2533" data-name="Path 2533" d="M1871.445,1029.355l1.04-1.757-.858-1.853a.28.28,0,0,1,.316-.391l1.992.446,1.5-1.388a.28.28,0,0,1,.47.179l.191,2.033,1.783.995a.281.281,0,0,1-.026.5l-1.874.81-.4,2a.28.28,0,0,1-.486.131l-1.349-1.532-2.027.243A.281.281,0,0,1,1871.445,1029.355Z" transform="translate(-1003.374 -585.667)" fill="#466eb6"/>
    <path id="Path_2534" data-name="Path 2534" d="M1196.328,487.274l1.312-2.217-1.082-2.338a.354.354,0,0,1,.4-.494l2.514.563,1.889-1.752a.354.354,0,0,1,.594.226l.241,2.565,2.25,1.255a.354.354,0,0,1-.032.634l-2.365,1.022-.5,2.527a.354.354,0,0,1-.613.165l-1.7-1.933-2.558.307A.354.354,0,0,1,1196.328,487.274Z" transform="translate(-428.627 -123.066)" fill="#f79c8d"/>
    <path id="Path_2535" data-name="Path 2535" d="M1812.582,560.561l-3.465,2.313,1.938,3.364-3.313,2.429,1.455,3.444-2.182,2.223,1.125,1.1,2.918-2.973-1.379-3.263,3.446-2.527-1.906-3.309,3.14-2.1Z" transform="translate(-948.557 -190.847)" fill="#f48c7f"/>
    <path id="Path_2536" data-name="Path 2536" d="M1794.113,906.791l-2.452-3.369-3.283,2.073-2.561-3.212-3.382,1.594-2.31-2.09-1.058,1.169,3.089,2.8,3.2-1.51,2.665,3.341,3.229-2.039,2.221,3.053Z" transform="translate(-924.765 -481.338)" fill="#f48c7f"/>
    <path id="Path_2537" data-name="Path 2537" d="M1065.629,387.753l.832-4.082-3.745-1.024.642-4.058-3.458-1.42-.016-3.115-1.577.008.021,4.166,3.277,1.346-.668,4.221,3.683,1.007-.754,3.7Z" transform="translate(-311.171 -32.071)" fill="#f48c7f"/>
    <path id="Path_2538" data-name="Path 2538" d="M870.342,502.706l1.586,2.962,3.421-.191,1.543,3.446,3.581-1.328,1.917,3.82,3.448-.816,2.445,3.374L887,514.9l-1.828-2.522-3.638.861-1.842-3.672-3.641,1.35-1.7-3.8-3.34.187-1.47-2.745-2.168.582-.409-1.523Z" transform="translate(-148.28 -141.595)" fill="#f7cc7f"/>
    <path id="Path_2539" data-name="Path 2539" d="M734.74,621.379l-2.525.256-.861-4.017-3.738-.081-1.136-2.9-1.469.575,1.519,3.88,3.542.076.9,4.179,3.8-.386Z" transform="translate(-27.433 -236.883)" fill="#50bfa5"/>
    <path id="Path_2540" data-name="Path 2540" d="M702.766,952.877l-.945,2.355-3.958-1.1-1.806,3.273-3.1-.34-.172,1.568,4.141.455,1.712-3.1,4.117,1.146,1.422-3.544Z" transform="translate(0 -524.832)" fill="#50bfa5"/>
    <g id="Group_385" data-name="Group 385" transform="translate(697.58 399.745)">
      <path id="Path_2541" data-name="Path 2541" d="M736.907,764.5a7.029,7.029,0,1,1-9.938.207A7.029,7.029,0,0,1,736.907,764.5Z" transform="translate(-725.013 -762.544)" fill="#fff3d9"/>
      <path id="Path_2542" data-name="Path 2542" d="M748.408,782.049l-2.991.919-.938,2.985a.3.3,0,0,1-.54.084l-1.8-2.56-3.129.03a.3.3,0,0,1-.247-.488l1.879-2.5-1-2.966a.305.305,0,0,1,.388-.386L743,778.18l2.513-1.863a.3.3,0,0,1,.487.25l-.05,3.129,2.549,1.815A.305.305,0,0,1,748.408,782.049Z" transform="translate(-736.668 -774.217)" fill="#fed333"/>
    </g>
    <path id="Path_2543" data-name="Path 2543" d="M1811.326,763.405l1.229,2.041a.311.311,0,0,0,.556-.046l.873-2.217,2.321-.538a.311.311,0,0,0,.128-.544l-1.839-1.515.206-2.374a.311.311,0,0,0-.477-.289l-2.009,1.28-2.194-.929a.311.311,0,0,0-.423.365l.6,2.306-1.562,1.8a.311.311,0,0,0,.216.515Z" transform="translate(-949.953 -358.823)" fill="#f47458"/>
    <path id="Path_2544" data-name="Path 2544" d="M1781.307,1101.371a1.424,1.424,0,1,1-1.424-1.424A1.424,1.424,0,0,1,1781.307,1101.371Z" transform="translate(-924.247 -650.035)" fill="#50bfa5"/>
    <g id="Group_386" data-name="Group 386" transform="translate(769.654 336.381)">
      <path id="Path_2545" data-name="Path 2545" d="M1211.175,340.057l1.869.369s2.732-1.276,2.941-1.891.113-2.033.512-2.122a1.236,1.236,0,0,1,1.506.886c.222.683-.551,2.831-.364,3.027a9.892,9.892,0,0,0,1.969.53,1.411,1.411,0,0,1,1.067,1.014v0a.776.776,0,0,1-.378.888l-.492.264.231.513a.776.776,0,0,1-.368,1.016l-.383.184.168.309a.776.776,0,0,1-.371,1.08l-.336.145.026.092a.775.775,0,0,1-.453.93l-.335.134-4.979-.984a3.436,3.436,0,0,1-1.3-.553l-1.693-.641a.4.4,0,0,1-.244-.457l.946-4.423A.4.4,0,0,1,1211.175,340.057Z" transform="translate(-1209.758 -336.381)" fill="#96d9c9"/>
    </g>
  </g>
</svg>
