<svg xmlns="http://www.w3.org/2000/svg" width="81.161" height="62.581" viewBox="0 0 81.161 62.581">
  <g id="Group_777" data-name="Group 777" transform="translate(-298.51 -80.049)" opacity="0.95">
    <circle id="Ellipse_131" data-name="Ellipse 131" cx="5.274" cy="5.274" r="5.274" transform="translate(349.051 80.049)" fill="#311b71"/>
    <path id="Path_2401" data-name="Path 2401" d="M364.461,122.824a15.128,15.128,0,0,0-5.38.986c-1.8-4.071-3.4-7.743-4.156-9.632a29.488,29.488,0,0,0,6.467-.929c-.241.255-.487.5-.728.728a1.03,1.03,0,0,0,1.41,1.5c.813-.762,3.466-3.4,3.466-5.266a4.953,4.953,0,0,0-4.01-4.747c-1.169-.185-6.263-.62-7.985.815a4.184,4.184,0,0,0-1.287,2.3.9.9,0,0,1-.373-.233c-3.3-5.937-3.405-9.488-3.406-9.524v.034h-.046l-.012-.2c-.5-2.112-2.692-3.355-5.615-2.3l-16.087,6.654a5.579,5.579,0,0,0-3.841,3.646,3.659,3.659,0,0,0-.127,2.585,2.94,2.94,0,0,0-1.374.532c-.981.883-.411,4.136,2.748,4.612a3.582,3.582,0,0,0,.941.018c.59,1.447,1.213,3.126,1.741,4.875l-4.63,6.12a15.209,15.209,0,1,0,5.959,17.49,3.663,3.663,0,0,0,3.5,3.171l.133,0a3.664,3.664,0,0,0,3.659-3.533c0-.088.018-.518.038-1.188l3.794.379c.114.016.229.027.345.035l.081.008.044,0c.006,0,.011,0,.018,0,.044,0,.088.007.132.007a4.324,4.324,0,0,0,4.367-4.269,4.245,4.245,0,0,0-1.978-3.569,17.574,17.574,0,0,1,1.043-2.637c0,.052.007.1.011.155a3.664,3.664,0,0,0,3.651,3.4q.132,0,.266-.009a3.654,3.654,0,0,0,2.819-1.68,15.209,15.209,0,1,0,14.406-10.335Zm-14.622-1.651c-.085-1.014-.178-2.178-.292-3.723a8.667,8.667,0,0,0-.133-.987l4.11-.018a.916.916,0,0,0,.105-.011c.28.668.6,1.424.955,2.241A27.339,27.339,0,0,0,349.838,121.173ZM361.209,107.5a2.23,2.23,0,0,1,.541.162,2.661,2.661,0,0,0-.457.09,26.125,26.125,0,0,1-6.967,1.087,2.011,2.011,0,0,1,.54-.976C355.574,107.274,359.04,107.159,361.209,107.5Zm-8.535,6.561c.036.1.076.206.122.324l-4.057.018a13.956,13.956,0,0,0-5.827-5.764l2.753-.788c.44.962.956,1.991,1.563,3.084C348.314,112.9,350.373,113.773,352.673,114.063ZM326.561,135.2l-10.378,1.536,6.377-8.429A13.158,13.158,0,0,1,326.561,135.2Zm-11.138,2.541,11.3-1.673a13.013,13.013,0,0,1,.054,3.517L314.924,138.4Zm20.165-2.985,1.1-.162a4.212,4.212,0,0,0-1.121,2.267C335.574,136.186,335.582,135.481,335.588,134.754Zm.005-.893c.011-2.422-.015-4.979-.117-7.147l2.944,6.728Zm-3.5-21.634c.2,0,.384-.01.559-.02a38.409,38.409,0,0,1,5.621,2.243l-5.335.023C332.655,113.688,332.37,112.936,332.09,112.227Zm-4.61,9.574a25.669,25.669,0,0,1,.527,3.091c.218,2.138.271,5.492.259,8.687a15.243,15.243,0,0,0-4.461-6.92Zm-13.758,29.385a13.151,13.151,0,1,1,7.208-24.142l-7.882,10.419a1.03,1.03,0,0,0,.2,1.444,1.014,1.014,0,0,0,.127.081.434.434,0,0,0,.3.174l12.968,1.3A13.17,13.17,0,0,1,313.722,151.186Zm21.766-10.733c.019-.692.038-1.52.056-2.447a4.222,4.222,0,0,0,1.335,2.585Zm4.389-.161a2.8,2.8,0,1,1,2.9-2.8A2.85,2.85,0,0,1,339.877,140.293Zm.444-7.044c-.019,0-.038,0-.057,0L334.7,120.54c-.3-1.361-.67-2.712-1.078-4.009l7.739-.034a2.506,2.506,0,0,1,.874,1.493c.207,2.794.35,4.433.49,6.018.095,1.08.191,2.184.31,3.672A20.261,20.261,0,0,0,340.32,133.249Zm10.309-2.329c-.261-3.644-.427-5.558-.584-7.353a26.286,26.286,0,0,1,5.361-3c.566,1.3,1.177,2.686,1.8,4.1a15.307,15.307,0,0,0-6.63,7.165A3.67,3.67,0,0,0,350.629,130.92Zm13.831,20.266a13.147,13.147,0,0,1-6.413-24.626c2.537,5.708,5.027,11.207,5.229,11.655a1.03,1.03,0,1,0,1.877-.851c-1.415-3.124-3.378-7.487-5.237-11.671a13.151,13.151,0,1,1,4.544,25.492Z" transform="translate(0 -10.62)" fill="#311b71"/>
  </g>
</svg>
