<svg xmlns="http://www.w3.org/2000/svg" width="252.962" height="122.849" viewBox="0 0 252.962 122.849">
  <g id="Group_770" data-name="Group 770" transform="translate(-651.789 -336.381)">
    <g id="Group_380" data-name="Group 380" transform="translate(814.875 342.378)">
      <path id="Path_2503" data-name="Path 2503" d="M1540.8,393.005l-7.3,2.595a1.2,1.2,0,0,0-.756.822l-2,7.5a1.2,1.2,0,0,1-2.109.42l-4.726-6.163a1.2,1.2,0,0,0-1.014-.469l-7.737.4a1.2,1.2,0,0,1-1.053-1.882l4.378-6.4a1.206,1.206,0,0,0,.13-1.112l-2.784-7.255a1.2,1.2,0,0,1,1.458-1.583l7.432,2.206a1.2,1.2,0,0,0,1.094-.218l6.016-4.887a1.2,1.2,0,0,1,1.954.9l.215,7.767a1.205,1.205,0,0,0,.547.977l6.5,4.235A1.2,1.2,0,0,1,1540.8,393.005Z" transform="translate(-1513.891 -376.711)" fill="#f7cc7f"/>
    </g>
    <g id="Group_381" data-name="Group 381" transform="translate(880.512 432.782)">
      <path id="Path_2505" data-name="Path 2505" d="M1358.145,611.151a2.017,2.017,0,0,1-1.356.333,2.543,2.543,0,0,1-.909-.389,2.556,2.556,0,0,0,.852.9C1357.609,612.466,1358.145,611.151,1358.145,611.151Z" transform="translate(-1342.011 -585.649)" fill="#f47458"/>
      <path id="Path_2506" data-name="Path 2506" d="M1264.272,461.985l6.784-1.4a1.043,1.043,0,0,1,.956.3l4.96,5.043a1.06,1.06,0,0,0,1.81-.667l.81-7.171a1.116,1.116,0,0,1,.564-.857l6.118-3.358a1.14,1.14,0,0,0-.052-2l-6.283-3.032a1.116,1.116,0,0,1-.607-.826l-1.179-7.119a1.059,1.059,0,0,0-1.841-.571l-4.693,5.3a1.044,1.044,0,0,1-.939.346l-6.847-1.041a1.109,1.109,0,0,0-1.086,1.651l3.383,6.306a1.162,1.162,0,0,1,.027,1.04l-3.052,6.475A1.108,1.108,0,0,0,1264.272,461.985Z" transform="translate(-1262.605 -439.961)" fill="#f7cc7f"/>
    </g>
    <path id="Path_2534" data-name="Path 2534" d="M1196.328,487.274l1.312-2.217-1.082-2.338a.354.354,0,0,1,.4-.494l2.514.563,1.889-1.752a.354.354,0,0,1,.594.226l.241,2.565,2.25,1.255a.354.354,0,0,1-.032.634l-2.365,1.022-.5,2.527a.354.354,0,0,1-.613.165l-1.7-1.933-2.558.307A.354.354,0,0,1,1196.328,487.274Z" transform="translate(-498.627 -52.066)" fill="#f79c8d"/>
    <path id="Path_2535" data-name="Path 2535" d="M1812.582,560.561l-3.465,2.313,1.938,3.364-3.313,2.429,1.455,3.444-2.182,2.223,1.125,1.1,2.918-2.973-1.379-3.263,3.446-2.527-1.906-3.309,3.14-2.1Z" transform="translate(-948.557 -190.847)" fill="#f48c7f"/>
    <path id="Path_2537" data-name="Path 2537" d="M1065.629,387.753l.832-4.082-3.745-1.024.642-4.058-3.458-1.42-.016-3.115-1.577.008.021,4.166,3.277,1.346-.668,4.221,3.683,1.007-.754,3.7Z" transform="translate(-311.171 -32.071)" fill="#f48c7f"/>
    <path id="Path_2538" data-name="Path 2538" d="M870.342,502.706l1.586,2.962,3.421-.191,1.543,3.446,3.581-1.328,1.917,3.82,3.448-.816,2.445,3.374L887,514.9l-1.828-2.522-3.638.861-1.842-3.672-3.641,1.35-1.7-3.8-3.34.187-1.47-2.745-2.168.582-.409-1.523Z" transform="translate(-158.28 -155.595)" fill="#f7cc7f"/>
    <path id="Path_2539" data-name="Path 2539" d="M734.74,621.379l-2.525.256-.861-4.017-3.738-.081-1.136-2.9-1.469.575,1.519,3.88,3.542.076.9,4.179,3.8-.386Z" transform="translate(-37.433 -247.883)" fill="#50bfa5"/>
    <path id="Path_2540" data-name="Path 2540" d="M702.766,952.877l-.945,2.355-3.958-1.1-1.806,3.273-3.1-.34-.172,1.568,4.141.455,1.712-3.1,4.117,1.146,1.422-3.544Z" transform="translate(-41 -515.832)" fill="#50bfa5"/>
    <g id="Group_385" data-name="Group 385" transform="translate(697.58 399.745)">
      <path id="Path_2541" data-name="Path 2541" d="M736.907,764.5a7.029,7.029,0,1,1-9.938.207A7.029,7.029,0,0,1,736.907,764.5Z" transform="translate(-753.013 -762.544)" fill="#fff3d9"/>
      <path id="Path_2542" data-name="Path 2542" d="M748.408,782.049l-2.991.919-.938,2.985a.3.3,0,0,1-.54.084l-1.8-2.56-3.129.03a.3.3,0,0,1-.247-.488l1.879-2.5-1-2.966a.305.305,0,0,1,.388-.386L743,778.18l2.513-1.863a.3.3,0,0,1,.487.25l-.05,3.129,2.549,1.815A.305.305,0,0,1,748.408,782.049Z" transform="translate(-764.668 -774.217)" fill="#fed333"/>
    </g>
    <path id="Path_2543" data-name="Path 2543" d="M1811.326,763.405l1.229,2.041a.311.311,0,0,0,.556-.046l.873-2.217,2.321-.538a.311.311,0,0,0,.128-.544l-1.839-1.515.206-2.374a.311.311,0,0,0-.477-.289l-2.009,1.28-2.194-.929a.311.311,0,0,0-.423.365l.6,2.306-1.562,1.8a.311.311,0,0,0,.216.515Z" transform="translate(-931.953 -398.823)" fill="#f47458"/>
    <g id="Group_386" data-name="Group 386" transform="translate(769.654 336.381)">
      <path id="Path_2545" data-name="Path 2545" d="M1211.175,340.057l1.869.369s2.732-1.276,2.941-1.891.113-2.033.512-2.122a1.236,1.236,0,0,1,1.506.886c.222.683-.551,2.831-.364,3.027a9.892,9.892,0,0,0,1.969.53,1.411,1.411,0,0,1,1.067,1.014v0a.776.776,0,0,1-.378.888l-.492.264.231.513a.776.776,0,0,1-.368,1.016l-.383.184.168.309a.776.776,0,0,1-.371,1.08l-.336.145.026.092a.775.775,0,0,1-.453.93l-.335.134-4.979-.984a3.436,3.436,0,0,1-1.3-.553l-1.693-.641a.4.4,0,0,1-.244-.457l.946-4.423A.4.4,0,0,1,1211.175,340.057Z" transform="translate(-1209.758 -336.381)" fill="#96d9c9"/>
    </g>
  </g>
</svg>
