<svg id="Group_773" data-name="Group 773" xmlns="http://www.w3.org/2000/svg" width="93.12" height="72.645" viewBox="0 0 93.12 72.645">
  <g id="_011-test" data-name="011-test" transform="translate(29.401 8.404)">
    <g id="Person_3_">
      <g id="Arm_3_" transform="translate(6.775 39.718)">
        <path id="Path_14" data-name="Path 14" d="M234.2,406.729c-8.3-.182-10.45-10.315-12.53-19.157l7.606-1.745a67.883,67.883,0,0,0,2.868,10.1c1.117,2.665,1.932,2.985,1.939,2.987.032.006,2.914.251,10.792-10.515l6.3,4.608C244.24,402.486,239.04,406.729,234.2,406.729Z" transform="translate(-221.675 -385.827)" fill="#2d2667"/>
      </g>
      <g id="Hand_4_" transform="translate(0 37.424)">
        <path id="Path_15" data-name="Path 15" d="M203.75,377.86a3.166,3.166,0,0,1-3.166,3.167h-8.6a3.166,3.166,0,1,1,0-6.333h8.6A3.17,3.17,0,0,1,203.75,377.86Z" transform="translate(-188.814 -374.694)" fill="#eab39b"/>
        <path id="Path_16" data-name="Path 16" d="M202.313,376.44a3.166,3.166,0,0,1-3.166,3.166h-8.6a3.138,3.138,0,0,1-1.412-.331,3.176,3.176,0,0,1,2.83-4.583h8.6a1.381,1.381,0,0,1,1.747,1.747Z" transform="translate(-188.796 -374.693)" fill="#ffe9d7"/>
      </g>
      <g id="Body_6_" transform="translate(26.287 36.294)">
        <path id="Path_17" data-name="Path 17" d="M344.566,379.52q.779-.94,1.515-1.916a15.762,15.762,0,0,0-29.71,7.348v12.206A52.847,52.847,0,0,0,344.566,379.52Z" transform="translate(-316.37 -369.211)" fill="#2d2667"/>
        <path id="Path_18" data-name="Path 18" d="M339.271,396.361c.034-1.461-.106-11.572.117-12.756a15.649,15.649,0,0,1,1.918-5.819,15.84,15.84,0,0,1,10.173-7.605c.392-.09.786-.172,1.187-.231.48.072.954.167,1.42.28,4.414,1.088,11.281,3.8,17.889,20.83C365.692,399.392,349.314,392.9,339.271,396.361Z" transform="translate(-334.542 -369.798)" fill="#6c53a2"/>
        <path id="Path_19" data-name="Path 19" d="M339.271,397.251c.034-1.461-.106-11.572.117-12.757a15.659,15.659,0,0,1,1.712-5.444,15.847,15.847,0,0,1,9.73-7.815c.216-.062.433-.112.651-.165,5.133,1.165,15.895,17.954,17.7,22.913C363.061,401.366,348.526,394.067,339.271,397.251Z" transform="translate(-334.542 -370.687)" fill="#57409b"/>
      </g>
      <g id="HEAD_6_" transform="translate(23.443)">
        <g id="Ears_5_" transform="translate(0 20.316)">
          <path id="Path_20" data-name="Path 20" d="M312.8,295.262a3.634,3.634,0,0,1-3.594,3.971h-3.036c-4.808-.127-4.808-7.439,0-7.565h3.036A3.594,3.594,0,0,1,312.8,295.262Z" transform="translate(-302.567 -291.668)" fill="#f9d6bf"/>
          <path id="Path_21" data-name="Path 21" d="M443.651,295.262a3.634,3.634,0,0,1-3.594,3.971h-3.036c-4.808-.127-4.808-7.439,0-7.565h3.036A3.594,3.594,0,0,1,443.651,295.262Z" transform="translate(-406.454 -291.668)" fill="#f9d6bf"/>
          <g id="Group_16" data-name="Group 16" transform="translate(2.842 2.275)">
            <path id="Path_22" data-name="Path 22" d="M325.029,304.218a1.507,1.507,0,0,1-1.507,1.507h-5.653a1.507,1.507,0,0,1,0-3.014h5.653A1.507,1.507,0,0,1,325.029,304.218Z" transform="translate(-316.362 -302.711)" fill="#eab39b"/>
            <path id="Path_23" data-name="Path 23" d="M435.963,304.218a1.507,1.507,0,0,1-1.507,1.507H428.8a1.507,1.507,0,0,1,0-3.014h5.653A1.507,1.507,0,0,1,435.963,304.218Z" transform="translate(-404.437 -302.711)" fill="#eab39b"/>
          </g>
        </g>
        <g id="Neck_5_" transform="translate(14.823 29.99)">
          <path id="Path_24" data-name="Path 24" d="M382.069,342.4v3.762a3.782,3.782,0,1,1-7.565,0V342.4a3.782,3.782,0,1,1,7.565,0Z" transform="translate(-374.504 -338.616)" fill="#eab39b"/>
          <path id="Path_25" data-name="Path 25" d="M389.36,342.884v3.762a2.93,2.93,0,1,1-5.673,0v-3.762a2.93,2.93,0,1,1,5.673,0Z" transform="translate(-381.795 -339.096)" fill="#f9d6bf"/>
          <path id="Path_26" data-name="Path 26" d="M382.069,342.4v3.464a12.456,12.456,0,0,1-2.755.307,20.639,20.639,0,0,1-4.81-.307V342.4a3.782,3.782,0,1,1,7.565,0Z" transform="translate(-374.504 -338.616)" fill="#eab39b"/>
        </g>
        <g id="Face_5_" transform="translate(5.125 2.232)">
          <path id="Path_27" data-name="Path 27" d="M354.4,216.356v8.522a12.464,12.464,0,0,1-12.453,12.45h-2.057a12.45,12.45,0,0,1-12.45-12.45v-8.522a12.45,12.45,0,0,1,12.45-12.452h2.057A12.465,12.465,0,0,1,354.4,216.356Z" transform="translate(-327.442 -203.903)" fill="#f9d6bf"/>
          <path id="Path_28" data-name="Path 28" d="M369.891,216.5v8.522a11.506,11.506,0,1,1-22.94,0V216.5a11.506,11.506,0,1,1,22.94,0Z" transform="translate(-342.931 -204.049)" fill="#ffe9d7"/>
        </g>
        <g id="Mouth1_3_" transform="translate(14.856 27.693)">
          <path id="Path_29" data-name="Path 29" d="M378.414,329.389a5.1,5.1,0,0,1-3.638-1.229.412.412,0,0,1,.606-.559c1.12,1.27,4.944,1.27,6.064,0a.412.412,0,0,1,.605.559A5.1,5.1,0,0,1,378.414,329.389Z" transform="translate(-374.664 -327.467)" fill="#eab39b"/>
        </g>
        <g id="Nose1_4_" transform="translate(16.125 24.518)">
          <path id="Path_30" data-name="Path 30" d="M385.379,312.885h-4.148a.412.412,0,0,1,0-.824h4.148A.412.412,0,0,1,385.379,312.885Z" transform="translate(-380.825 -312.061)" fill="#f3c3aa"/>
        </g>
        <g id="Eyes_6_" transform="translate(11.579 18.888)">
          <path id="Path_31" data-name="Path 31" d="M362.455,286.587a1.851,1.851,0,1,0-1.851,1.851A1.851,1.851,0,0,0,362.455,286.587Z" transform="translate(-358.764 -284.736)" fill="#eab39b"/>
          <path id="Path_32" data-name="Path 32" d="M412.786,286.587a1.851,1.851,0,1,0-1.851,1.851A1.851,1.851,0,0,0,412.786,286.587Z" transform="translate(-398.724 -284.736)" fill="#eab39b"/>
          <path id="Path_33" data-name="Path 33" d="M362.817,290.427a1.724,1.724,0,1,0-1.724,1.724A1.724,1.724,0,0,0,362.817,290.427Z" transform="translate(-359.252 -287.886)" fill="#122894"/>
          <path id="Path_34" data-name="Path 34" d="M367.753,291.448a.878.878,0,0,0-1.242-1.242A.878.878,0,0,0,367.753,291.448Z" transform="translate(-364.706 -288.871)" fill="#e8f3fc"/>
          <path id="Path_35" data-name="Path 35" d="M413.149,290.427a1.724,1.724,0,1,0-1.724,1.724A1.724,1.724,0,0,0,413.149,290.427Z" transform="translate(-399.213 -287.886)" fill="#122894"/>
          <path id="Path_36" data-name="Path 36" d="M418.084,291.448a.878.878,0,0,0-1.242-1.242.878.878,0,0,0,1.242,1.242Z" transform="translate(-404.667 -288.871)" fill="#e8f3fc"/>
        </g>
        <g id="Hair_2_" transform="translate(2.888)">
          <path id="Path_37" data-name="Path 37" d="M347.9,207.539v5.9a18.36,18.36,0,0,0-2.119-.054s0-5.631,0-5.633a113.914,113.914,0,0,1-22.382-3.7c-1.206-.336-2.417-.7-3.618-1.1a12.392,12.392,0,0,0-.96,4.8v5.63a15.415,15.415,0,0,0-2.237.073v-5.919a14.474,14.474,0,0,1,11.3-14.113,24.118,24.118,0,0,1,5.555-.352A14.45,14.45,0,0,1,347.9,207.539Z" transform="translate(-316.585 -193.069)" fill="#dd5e26"/>
          <path id="Path_38" data-name="Path 38" d="M374.161,216.141v5.9a18.36,18.36,0,0,0-2.119-.054v-5.63a114.4,114.4,0,0,1-22.382-3.7,12.456,12.456,0,0,1,11.892-8.754h2.057a12.4,12.4,0,0,1,5.557,1.305A14.4,14.4,0,0,1,374.161,216.141Z" transform="translate(-342.845 -201.671)" fill="#ea792e"/>
        </g>
      </g>
    </g>
  </g>
  <g id="_020-test" data-name="020-test" transform="translate(0 0)">
    <g id="Pencil_10_" transform="translate(38.68 1.937)">
      <g id="Group_24" data-name="Group 24" transform="translate(1.606 9.706)">
        <path id="Path_76" data-name="Path 76" d="M377.637,184.225h6.072v23.146h-6.072Z" transform="translate(-377.637 -184.225)" fill="#f39e22"/>
        <path id="Path_77" data-name="Path 77" d="M379.4,185.991v19.615a1.767,1.767,0,0,1-1.766,1.766V184.225A1.766,1.766,0,0,1,379.4,185.991Z" transform="translate(-377.637 -184.225)" fill="#c68132"/>
        <path id="Path_78" data-name="Path 78" d="M409.924,184.225v23.146a1.767,1.767,0,0,1-1.767-1.766V185.991A1.766,1.766,0,0,1,409.924,184.225Z" transform="translate(-403.853 -184.225)" fill="#f9c744"/>
      </g>
      <g id="Group_25" data-name="Group 25" transform="translate(0 32.853)">
        <path id="Path_79" data-name="Path 79" d="M375.535,349.741a1.406,1.406,0,0,1-1.4,1.406h-6.474a1.406,1.406,0,0,1,0-2.812h6.474a1.406,1.406,0,0,1,1.4,1.406Z" transform="translate(-366.252 -348.335)" fill="#ebd9ea"/>
        <path id="Path_80" data-name="Path 80" d="M398.615,349.741h-4.087a1.406,1.406,0,0,1-1.406-1.406h4.089a1.406,1.406,0,0,1,1.4,1.406Z" transform="translate(-389.332 -348.335)" fill="#fff"/>
        <path id="Path_81" data-name="Path 81" d="M374.482,363.018h-6.164a1.408,1.408,0,0,1-1.3-.863h6.164a1.408,1.408,0,0,1,1.3.863Z" transform="translate(-366.913 -360.206)" fill="#c1b7d3"/>
      </g>
      <g id="Group_26" data-name="Group 26" transform="translate(1.605 35.665)">
        <path id="Path_82" data-name="Path 82" d="M383.7,368.275v2.08a3.023,3.023,0,0,1-1.059,2.3,2.09,2.09,0,0,1-.175.141,3.038,3.038,0,0,1-3.677-.058,2.659,2.659,0,0,1-.233-.2.4.4,0,0,1-.038-.035,3.022,3.022,0,0,1-.89-2.147v-2.08Z" transform="translate(-377.632 -368.275)" fill="#ee6781"/>
        <path id="Path_83" data-name="Path 83" d="M407.789,368.275v2.08a3.023,3.023,0,0,1-1.059,2.3q-.087-.074-.169-.157a3.026,3.026,0,0,1-.888-2.147v-2.08Z" transform="translate(-401.717 -368.275)" fill="#f0a6b3"/>
        <path id="Path_84" data-name="Path 84" d="M379.487,368.275v2.08a3.014,3.014,0,0,1-.927,2.182.479.479,0,0,1-.038-.035,3.022,3.022,0,0,1-.89-2.147v-2.08Z" transform="translate(-377.632 -368.275)" fill="#d65171"/>
      </g>
      <path id="Path_85" data-name="Path 85" d="M383.7,145.649h-6.072l2.539-6.334h1l2.056,5.134Z" transform="translate(-376.027 -135.943)" fill="#f5b890"/>
      <path id="Path_86" data-name="Path 86" d="M394.065,144.449h-3.073a.737.737,0,0,1-.684-1.011l1.652-4.123h.049Z" transform="translate(-386.869 -135.943)" fill="#fbd9a3"/>
      <g id="Group_27" data-name="Group 27" transform="translate(3.997)">
        <path id="Path_87" data-name="Path 87" d="M395.881,116.05v2.994a.645.645,0,0,1-1.289,0V116.05a.645.645,0,0,1,.542-.636.618.618,0,0,1,.1-.008A.644.644,0,0,1,395.881,116.05Z" transform="translate(-394.592 -115.405)" fill="#2e3140"/>
        <path id="Path_88" data-name="Path 88" d="M399.179,116.05v1.832a.619.619,0,0,1-.1.008.645.645,0,0,1-.645-.645v-1.832a.617.617,0,0,1,.1-.008A.644.644,0,0,1,399.179,116.05Z" transform="translate(-397.891 -115.405)" fill="#334353"/>
      </g>
    </g>
    <g id="Group_34" data-name="Group 34" transform="translate(0 0)">
      <g id="Group_32" data-name="Group 32">
        <path id="Path_89" data-name="Path 89" d="M125.007,105.051v37.892a3.381,3.381,0,0,1-3.381,3.382H95.392a3.382,3.382,0,0,1-3.382-3.382V105.051a3.382,3.382,0,0,1,3.382-3.381h26.234A3.38,3.38,0,0,1,125.007,105.051Z" transform="translate(-92.01 -101.67)" fill="#fff"/>
        <g id="Group_31" data-name="Group 31" transform="translate(4.412 5.798)">
          <path id="Path_90" data-name="Path 90" d="M129.75,319.458h-4.774a1.683,1.683,0,0,0-1.683,1.683v4.774a1.683,1.683,0,0,0,1.683,1.683h4.774a1.683,1.683,0,0,0,1.683-1.683v-4.774A1.683,1.683,0,0,0,129.75,319.458Z" transform="translate(-123.293 -294.539)" fill="#ebd9ea"/>
          <g id="Group_28" data-name="Group 28">
            <path id="Path_91" data-name="Path 91" d="M129.75,142.779h-4.774a1.683,1.683,0,0,0-1.683,1.683v4.774a1.683,1.683,0,0,0,1.683,1.683h4.774a1.683,1.683,0,0,0,1.683-1.683v-4.774A1.683,1.683,0,0,0,129.75,142.779Z" transform="translate(-123.293 -142.779)" fill="#ebd9ea"/>
            <path id="Path_92" data-name="Path 92" d="M133.491,151.9a.706.706,0,0,1,0-1l1.524-1.524a.761.761,0,0,0-1.076-1.076l-1.524,1.524a.706.706,0,0,1-1,0l-1.525-1.525a.761.761,0,1,0-1.076,1.076l1.524,1.524a.706.706,0,0,1,0,1l-1.524,1.524a.761.761,0,1,0,1.076,1.076l1.524-1.524a.706.706,0,0,1,1,0l1.524,1.524a.761.761,0,0,0,1.076-1.076Z" transform="translate(-127.846 -147.331)" fill="#df3d81"/>
          </g>
          <g id="Group_30" data-name="Group 30" transform="translate(0 11.726)">
            <path id="Path_93" data-name="Path 93" d="M129.75,231.119h-4.774a1.683,1.683,0,0,0-1.683,1.683v4.774a1.683,1.683,0,0,0,1.683,1.683h4.774a1.683,1.683,0,0,0,1.683-1.683V232.8A1.683,1.683,0,0,0,129.75,231.119Z" transform="translate(-123.293 -230.386)" fill="#ebd9ea"/>
            <g id="Group_29" data-name="Group 29" transform="translate(0.748)">
              <path id="Path_94" data-name="Path 94" d="M132.824,232.833a.846.846,0,0,1-1.273.211l-2.688-2.276a.761.761,0,0,1-.038-1.127.783.783,0,0,1,1.046-.013l1.3,1.1a.846.846,0,0,0,1.273-.211l2.514-4.2a.783.783,0,0,1,.994-.325.761.761,0,0,1,.328,1.079Z" transform="translate(-128.594 -225.921)" fill="#53b976"/>
            </g>
          </g>
        </g>
      </g>
      <g id="Group_33" data-name="Group 33" transform="translate(18.865 6.161)">
        <path id="Path_95" data-name="Path 95" d="M227.445,331.571a3.071,3.071,0,0,1-1.245-1.281,4.462,4.462,0,0,1,.022-3.9,3.24,3.24,0,0,1,1.289-1.318,3.833,3.833,0,0,1,1.908-.466,4.251,4.251,0,0,1,1.144.16,3.753,3.753,0,0,1,1.012.437.9.9,0,0,1,.466.772.818.818,0,0,1-.153.517.482.482,0,0,1-.4.2.851.851,0,0,1-.335-.073,2.824,2.824,0,0,1-.35-.174,4.023,4.023,0,0,0-.612-.3,1.916,1.916,0,0,0-.67-.109,1.7,1.7,0,0,0-1.391.59,2.6,2.6,0,0,0-.488,1.7A2.568,2.568,0,0,0,228.13,330a1.7,1.7,0,0,0,1.391.59,1.806,1.806,0,0,0,.648-.109,5.481,5.481,0,0,0,.634-.3,2.884,2.884,0,0,1,.379-.2.836.836,0,0,1,.321-.065.482.482,0,0,1,.393.2.8.8,0,0,1,.161.51.817.817,0,0,1-.109.429.972.972,0,0,1-.357.328,3.821,3.821,0,0,1-1.048.459,4.521,4.521,0,0,1-1.224.167A3.773,3.773,0,0,1,227.445,331.571Z" transform="translate(-225.763 -299.326)" fill="#6c53a2"/>
        <path id="Path_96" data-name="Path 96" d="M231.336,146.088a3.081,3.081,0,0,1,.721,2.236v3.555a.821.821,0,0,1-.233.619.882.882,0,0,1-.641.225.853.853,0,0,1-.619-.232.814.814,0,0,1-.24-.612v-.321a1.9,1.9,0,0,1-.779.889,2.341,2.341,0,0,1-1.231.32,2.869,2.869,0,0,1-1.3-.29,2.3,2.3,0,0,1-.917-.8,2.025,2.025,0,0,1-.335-1.137,1.8,1.8,0,0,1,.4-1.238,2.411,2.411,0,0,1,1.3-.656,11.842,11.842,0,0,1,2.491-.2h.364v-.335a1.49,1.49,0,0,0-.306-1.041,1.3,1.3,0,0,0-.99-.328,3.127,3.127,0,0,0-.859.124c-.292.082-.636.2-1.034.357a1.466,1.466,0,0,1-.554.188.548.548,0,0,1-.43-.188.72.72,0,0,1-.168-.5.752.752,0,0,1,.124-.43,1.181,1.181,0,0,1,.415-.341,4.731,4.731,0,0,1,1.217-.437,6.282,6.282,0,0,1,1.391-.16A2.97,2.97,0,0,1,231.336,146.088Zm-1.471,4.88a1.767,1.767,0,0,0,.459-1.26V149.4h-.263a9.9,9.9,0,0,0-1.514.088,1.468,1.468,0,0,0-.772.306.775.775,0,0,0-.233.6.984.984,0,0,0,.328.765,1.154,1.154,0,0,0,.808.3A1.557,1.557,0,0,0,229.865,150.968Z" transform="translate(-225.764 -145.353)" fill="#6c53a2"/>
        <path id="Path_97" data-name="Path 97" d="M237.092,223.182a3.03,3.03,0,0,1,1.114,1.281,4.408,4.408,0,0,1,.4,1.937,4.551,4.551,0,0,1-.4,1.96,3.088,3.088,0,0,1-1.121,1.318,2.953,2.953,0,0,1-1.639.466,2.8,2.8,0,0,1-1.376-.334,2.283,2.283,0,0,1-.925-.933v.364a.818.818,0,0,1-.248.627.916.916,0,0,1-.655.232.891.891,0,0,1-.648-.232.833.833,0,0,1-.241-.627v-8.71a.789.789,0,0,1,.255-.612.942.942,0,0,1,.663-.232.956.956,0,0,1,.655.218.757.757,0,0,1,.247.6v3.438a2.177,2.177,0,0,1,.918-.9,2.873,2.873,0,0,1,1.354-.313A3.014,3.014,0,0,1,237.092,223.182Zm-.786,4.937a2.72,2.72,0,0,0,.481-1.719,2.6,2.6,0,0,0-.473-1.675,1.843,1.843,0,0,0-2.7.007,2.654,2.654,0,0,0-.474,1.7,2.685,2.685,0,0,0,.474,1.7,1.8,1.8,0,0,0,2.687-.015Z" transform="translate(-230.565 -209.202)" fill="#6c53a2"/>
      </g>
    </g>
  </g>
</svg>
