<svg xmlns="http://www.w3.org/2000/svg" width="12.715" height="16.688" viewBox="0 0 12.715 16.688">
  <path id="Path_3446" data-name="Path 3446" d="M15.126,6.563h-.795V4.973a3.973,3.973,0,0,0-7.947,0V6.563H5.589A1.594,1.594,0,0,0,4,8.152V16.1a1.594,1.594,0,0,0,1.589,1.589h9.536A1.594,1.594,0,0,0,16.715,16.1V8.152A1.594,1.594,0,0,0,15.126,6.563Zm-4.768,7.152a1.589,1.589,0,1,1,1.589-1.589A1.594,1.594,0,0,1,10.358,13.715Zm2.464-7.152H7.894V4.973a2.464,2.464,0,0,1,4.927,0Z" transform="translate(-4 -1)" fill="#153243"/>
</svg>
