<svg xmlns="http://www.w3.org/2000/svg" width="59.588" height="68" viewBox="0 0 59.588 68">
  <g id="male-brain" transform="translate(-33.116)">
    <path id="Path_2487" data-name="Path 2487" d="M92.458,21.3C91.3,15.612,92.04,3.706,72.351.566S34.93,7.412,39.391,29.242c0,3.979-7.879,10.156-5.98,12.244a7.958,7.958,0,0,0,5.12,2.17s-2.094,3.979-1.152,5.078,3.559.629,3.559.629S38.5,51.116,38.5,52.476s4.108,3.169,4.108,3.169-.753,7.529,5.415,7.007,7.207-2.264,7.207-2.264L57.066,68H80.941L80.1,51.455S94.763,35.539,92.458,21.3Zm-9.29,8.959-6.656,1.487-2.954-2.658L74.6,26.429h8.565ZM82.86,7.27l4.924,5.217L82.86,16.622H80.1V13.964l1.575-2.017-.2-3.371ZM80.1,4.906l-.294,7.319-2.558,3.84-1.677-.624.223-4.412L71.491,9.681l3.693-5.569ZM63.456,9.951l.074-6.082,6.35.053,2.99,1.329L70.951,8.28l-1.575,2.238L74.1,12v3.051L73.116,17.8l-6.106.394V17.114l-1.146-.492-1.118,3.452L61.756,21.25l-4.049-2.905,1.723-3.052,2.462.836.417-1.477-1.3-.985.9-1.723,5.105,1.723,1.526-.69ZM52.048,12.19h6.006l-4.726-2.066,1.427-2.462,7-2.72V9.189l-4.787.064,3.249,1.955-3.053,5.906h-5.71S51.752,12.19,52.048,12.19Zm-.461,6.155H55.77l5.414,3.721-3.446,1.376Zm7.845,8.711V23.709L61.4,22.627l4.923,2.067,3.049.985.394-1.527-3.936-1.525.294-2.658,5.908.2,5.217-3.051,5.217,1.575,5.514-4.037,2.954,5.022-7.089.491-1.18,3.052,3.248.393L83.65,22.527l.492-1.575,6.333-.209-.5,5.5-5.846.033L81.483,24,77.74,25.433l-2.916-.111,2.524-2.4-5.661-.258,2.018,2.523-1.772,3.938H62.484Zm14.968,9.4L69.068,30.9a30.425,30.425,0,0,0,3.742-.887l4.543,5.071Z" fill="#2a85e6"/>
  </g>
</svg>
