<svg xmlns="http://www.w3.org/2000/svg" width="62.998" height="63.022" viewBox="0 0 62.998 63.022">
  <g id="Layer_2" data-name="Layer 2" transform="translate(0 0.022)">
    <g id="Layer_1" data-name="Layer 1" transform="translate(0 -0.023)">
      <path id="first_aid" data-name="first aid" d="M51.787,12.815H46.736a15.461,15.461,0,0,0-30.474,0H11.212A11.222,11.222,0,0,0,0,24.026V51.788A11.222,11.222,0,0,0,11.212,63H51.787A11.222,11.222,0,0,0,63,51.788V24.026A11.222,11.222,0,0,0,51.787,12.815ZM31.5,5.34a10.144,10.144,0,0,1,9.77,7.474H21.74A10.3,10.3,0,0,1,31.5,5.34ZM44.846,42.157a2.306,2.306,0,0,1-2.306,2.3h-4.5V48.1a2.306,2.306,0,0,1-2.306,2.306H27.249A2.306,2.306,0,0,1,24.943,48.1V44.453H20.458a2.306,2.306,0,0,1-2.306-2.3V33.615a2.306,2.306,0,0,1,2.306-2.306h4.485V27.764a2.306,2.306,0,0,1,2.306-2.306h8.542a2.306,2.306,0,0,1,2.253,2.306V31.4h4.5a2.306,2.306,0,0,1,2.306,2.253Z" transform="translate(0 0.023)" fill="#eb5940"/>
    </g>
  </g>
</svg>
