<svg xmlns="http://www.w3.org/2000/svg" xmlns:xlink="http://www.w3.org/1999/xlink" width="250" height="250" viewBox="0 0 250 250">
  <defs>
    <clipPath id="clip-path">
      <path id="Path_3418" data-name="Path 3418" d="M124.5,0C193.259,0,249,55.964,249,125a125.04,125.04,0,0,1-88.278,119.627A123.78,123.78,0,0,1,124.5,250C55.741,250,0,194.036,0,125S55.741,0,124.5,0Z" transform="translate(0.061 -0.439)" fill="rgba(246,207,67,0.21)"/>
    </clipPath>
  </defs>
  <g id="Group_771" data-name="Group 771" transform="translate(-46 -128)">
    <circle id="Ellipse_158" data-name="Ellipse 158" cx="125" cy="125" r="125" transform="translate(46 128)" fill="#f6cf43" opacity="0.33"/>
    <g id="Mask_Group_11" data-name="Mask Group 11" transform="translate(45.938 128.439)" clip-path="url(#clip-path)">
      <g id="Layer_2" data-name="Layer 2" transform="translate(9.831 38.41)">
        <g id="Слой_1" data-name="Слой 1" transform="translate(0 0)">
          <g id="_4" data-name="4" transform="translate(0 0)">
            <g id="CHAIR" transform="translate(110.181 157.512)">
              <line id="Line_38" data-name="Line 38" y2="102.281" transform="translate(11.266 13.708)" fill="none" stroke="#ffb000" stroke-miterlimit="10" stroke-width="6"/>
              <line id="Line_39" data-name="Line 39" y2="102.281" transform="translate(56.456 13.708)" fill="none" stroke="#ffb000" stroke-miterlimit="10" stroke-width="6"/>
              <line id="Line_40" data-name="Line 40" x2="45.074" transform="translate(10.829 99.546)" fill="none" stroke="#ffb000" stroke-miterlimit="10" stroke-width="6"/>
              <rect id="Rectangle_1147" data-name="Rectangle 1147" width="67.284" height="13.708" rx="6.854" fill="#fff" stroke="#6562cf" stroke-miterlimit="10" stroke-width="6"/>
            </g>
            <g id="CHARACTER" transform="translate(55.193)">
              <g id="HOOD" transform="translate(67.848 34.202)">
                <path id="Path_2799" data-name="Path 2799" d="M602.7,180.271c3.719-1.043,8.861-12.59,3.227-18.844s-17.572-6.442-27.706-4.924c-9.368,1.4-21.673,6.838-16.983,18.558C567.907,191.726,602.7,180.271,602.7,180.271Z" transform="translate(-560.208 -155.713)" fill="#ffb819"/>
                <path id="Path_2800" data-name="Path 2800" d="M612.47,177.7c3.514-.742,9.552-6.589,4.246-11.039s-13.48-4.883-22.184-3.4-17.725,4.564-13.585,13S612.47,177.7,612.47,177.7Z" transform="translate(-575.582 -161.006)" fill="#f49c00"/>
              </g>
              <g id="LEGS" transform="translate(20.554 125.92)">
                <g id="RIGHT_FOOT" data-name="RIGHT FOOT" transform="translate(76.666 111.726)">
                  <path id="Path_2801" data-name="Path 2801" d="M722.188,1144.379c-2.273,1.4-16.177,1.318-18.8,0s-2.01-5.772-2.447-8.746-6.646-8.566-7-10.493,6.383-6.122,7.551-7.831c-.962,2.838,8.669,3.459,9.445,1.621-.378,6.734,4.571,17.44,8.63,18.406C722.124,1137.948,724.461,1142.98,722.188,1144.379Z" transform="translate(-693.93 -1109.541)" fill="#dbdaff"/>
                  <path id="Path_2802" data-name="Path 2802" d="M739.635,1083.965l-2.078,7.365c-.771,1.839-10.4,1.217-9.445-1.621s.6-7.769.6-7.769Z" transform="translate(-720.552 -1081.94)" fill="#c36f0b"/>
                  <path id="Path_2803" data-name="Path 2803" d="M694,1153c.351,1.924,6.559,7.521,7,10.495s-.176,7.433,2.447,8.744,16.528,1.4,18.8,0" transform="translate(-693.985 -1137.392)" fill="none" stroke="#6562cf" stroke-linecap="round" stroke-miterlimit="10" stroke-width="1"/>
                  <path id="Path_2804" data-name="Path 2804" d="M773.81,1204.68a13.772,13.772,0,0,1,9.2-.439" transform="translate(-756.265 -1176.892)" fill="none" stroke="#fff" stroke-linecap="round" stroke-miterlimit="10" stroke-width="1"/>
                </g>
                <g id="LEFT_FOOT" data-name="LEFT FOOT" transform="translate(40.644 111.067)">
                  <path id="Path_2805" data-name="Path 2805" d="M530.853,1140.478c2.273,1.4,14.64,1.318,17.264,0s4.206-5.772,4.643-8.747,4.67-9.665,5.019-11.591-6.383-6.122-7.551-7.831c.962,2.838-8.45,4.558-9.225,2.719.378,6.734-3.475,17.44-7.532,18.407C530.915,1134.046,528.58,1139.078,530.853,1140.478Z" transform="translate(-529.931 -1104.98)" fill="#dbdaff"/>
                  <path id="Path_2806" data-name="Path 2806" d="M558.9,1081.185l4.714,7.8c.771,1.839,10.183.119,9.225-2.719a36.191,36.191,0,0,1-1.254-7.33Z" transform="translate(-552.537 -1078.94)" fill="#c36f0b"/>
                  <path id="Path_2807" data-name="Path 2807" d="M561.049,1148c-.349,1.924-4.582,8.619-5.019,11.593s-2.021,7.433-4.646,8.744-14.989,1.4-17.264,0" transform="translate(-533.2 -1132.831)" fill="none" stroke="#6562cf" stroke-linecap="round" stroke-miterlimit="10" stroke-width="1"/>
                  <path id="Path_2808" data-name="Path 2808" d="M550.2,1204.68a13.759,13.759,0,0,0-9.2-.439" transform="translate(-538.569 -1176.233)" fill="none" stroke="#fff" stroke-linecap="round" stroke-miterlimit="10" stroke-width="1"/>
                </g>
                <path id="PANTS" d="M390.634,575.266s-45.744,22.4-45.744,36.185c0,24.583,40.914,76.437,47.94,75.756s13.948-2.168,13.677-5.142-14.984-49.605-26.419-63.41c0,0,4.173-6.57,30.252-6.282,12.568.138,23.526.993,23.8,1.4s-13.664,27.6-6.554,69.65c.622,3.664,15.944,5.2,17.429,3.174s25.268-73.43,22.973-79.112-26.138-26.033-37.766-32.224C421.843,570.8,390.634,575.266,390.634,575.266Z" transform="translate(-344.89 -573.28)" fill="#3f4d79"/>
              </g>
              <g id="HOODY" transform="translate(10.331 49.437)">
                <path id="Path_2809" data-name="Path 2809" d="M341.254,232.5c-5.8,3.185-14.47,31.746-14.47,31.746s-20.888-25.639-21.855-25.881-6.578,7.248-6.578,7.248,10.906,48.691,27.917,49.774c7.141.455,13.179-3.688,18.136-9.741,2.2,7.325,4.248,13.366,4.248,13.366.879,3.075-15.516,11.542-11.775,13.869,0,0,12.764-4.151,35.286,1.656,26.929,6.95,39.947,1.678,37.4-.343s-6.543-8.59-7.925-12.986l2.484-23.652s8.694,22.066,21.835,22.066c15.676,0,30-47.925,30-47.925-5.572-.158-10.189-4.138-10.189-4.138-5.891,4.138-18.152,18.635-18.152,18.635s-7.642-23.1-11.3-28.354-15.595-9.394-23.564-11.3L361.231,225.1C359.115,224.694,346.189,229.125,341.254,232.5Z" transform="translate(-298.35 -225.073)" fill="#ffb000"/>
                <path id="Path_2810" data-name="Path 2810" d="M859.929,407.87c-3.987,4.584-7.589,12.74-7.589,12.74" transform="translate(-730.658 -367.719)" fill="none" stroke="#f49c00" stroke-miterlimit="10" stroke-width="1"/>
                <path id="Path_2811" data-name="Path 2811" d="M606.321,234.476c-15.3-1.294-30.671,8.333-30.671,8.333s-13.508-3.027-16.21-12.019" transform="translate(-502.092 -229.534)" fill="none" stroke="#f49c00" stroke-miterlimit="10" stroke-width="2"/>
                <path id="Path_2812" data-name="Path 2812" d="M495.157,439.11s-8.448-24.267-9.627-34.5" transform="translate(-444.416 -365.175)" fill="none" stroke="#f49c00" stroke-linecap="round" stroke-miterlimit="10" stroke-width="3"/>
              </g>
              <g id="ARMS" transform="translate(0 48.398)">
                <g id="RIGHT" transform="translate(157.464 6.146)">
                  <path id="Path_2813" data-name="Path 2813" d="M978.248,252.351c-.2,1.307-1.625,3.334-.219,3.319.725,0,5.965-.854,6.607,1.074a4.207,4.207,0,0,1-.138,2.783,2.926,2.926,0,0,1,.27,3.117c.694,1.067.879,2.449.4,3.058,0,0,1.215,2.8.055,3.451a19.566,19.566,0,0,1-12.1,1.722c-1.948-.5-4.285-1.707-4.883-5.854-.246-1.7,1.445-6.15,2.737-7.986.527-.756,2.458-3.769,3.11-4.595a9.756,9.756,0,0,0,1.849-4.118S978.819,248.7,978.248,252.351Z" transform="translate(-968.21 -248.32)" fill="#c36f0b"/>
                  <path id="Path_2814" data-name="Path 2814" d="M1010.357,285.5c.127.879-5.225,1.063-6.15,1.265-1.318.286-1.147,3.1.562,2.825a35.711,35.711,0,0,0,6.895-1" transform="translate(-995.621 -277.334)" fill="none" stroke="#b65a18" stroke-linecap="round" stroke-miterlimit="10" stroke-width="4"/>
                  <path id="Path_2815" data-name="Path 2815" d="M1012.848,306.215c-5.662,1.142-7.174,1.037-7.174,1.037-.826.163-1.889-2.757.114-3.132" transform="translate(-996.64 -291.864)" fill="none" stroke="#b65a18" stroke-linecap="round" stroke-miterlimit="10" stroke-width="4"/>
                  <path id="Path_2816" data-name="Path 2816" d="M1013.5,320.476c-5.329,1.171-7.174,1.037-7.174,1.037-.789.094-1.775-2.682-.165-2.873" transform="translate(-997.148 -303.194)" fill="none" stroke="#b65a18" stroke-linecap="round" stroke-miterlimit="10" stroke-width="4"/>
                  <path id="Path_2817" data-name="Path 2817" d="M1010.1,331.476s-1.9-.178-1.876,1.008c.053,2.109,1.074,2.335,5.9,1.45" transform="translate(-999.439 -313.204)" fill="none" stroke="#b65a18" stroke-linecap="round" stroke-miterlimit="10" stroke-width="4"/>
                </g>
                <g id="LEFT">
                  <path id="ARM" d="M260.6,224.035c.044,1.318,1.2,3.484-.185,3.295-.716-.1-5.779-1.566-6.644.255a4.173,4.173,0,0,0-.2,2.761,2.91,2.91,0,0,0-.646,3.04c-.813.969-1.162,2.309-.76,2.967,0,0-1.538,2.612-.474,3.393a19.424,19.424,0,0,0,11.72,3.167c1.977-.259,4.43-1.162,5.524-5.177.439-1.643-.679-6.227-1.726-8.2-.428-.81-1.966-4.015-2.511-4.909a9.734,9.734,0,0,1-1.318-4.283S260.482,220.366,260.6,224.035Z" transform="translate(-251.315 -220.34)" fill="#c36f0b"/>
                  <g id="FINGERS" transform="translate(1.468 7.2)">
                    <path id="Path_2818" data-name="Path 2818" d="M263.49,265.53c4.646,1.458,5.68,1.357,5.99-.714.1-.659-.464-.96-.971-1.1a6.516,6.516,0,0,0,.709.1c.707.173,1.9-2.236.844-2.9.439-.22.9-1.794.9-3.194.819-.567.879-2.247-.075-2.583-.9-.314-6.15-1.151-5.93-2Z" transform="translate(-262.284 -253.136)" fill="#c36f0b"/>
                    <path id="Path_2819" data-name="Path 2819" d="M263.87,256.015a36.2,36.2,0,0,0,6.418,1.819c1.65.477,2.161-2.276.9-2.717-.9-.314-5.1-1.683-5.93-2" transform="translate(-262.581 -253.12)" fill="none" stroke="#b65a18" stroke-linecap="round" stroke-miterlimit="10" stroke-width="3"/>
                    <path id="Path_2820" data-name="Path 2820" d="M261.43,275.788c5.443,1.812,6.686,1.893,6.686,1.893.793.259,2.2-2.486.268-3.1" transform="translate(-260.677 -269.866)" fill="none" stroke="#b65a18" stroke-linecap="round" stroke-miterlimit="10" stroke-width="3"/>
                    <path id="Path_2821" data-name="Path 2821" d="M258,289.393c5.109,1.8,6.945,1.893,6.945,1.893.767.191,1.836-2.688-.044-2.937" transform="translate(-258 -280.612)" fill="none" stroke="#b65a18" stroke-linecap="round" stroke-miterlimit="10" stroke-width="3"/>
                    <path id="Path_2822" data-name="Path 2822" d="M267.759,300.73s1.9.057,1.729,1.223c-.31,2.071-1.342,2.17-5.988.714" transform="translate(-262.292 -290.273)" fill="none" stroke="#b65a18" stroke-linecap="round" stroke-miterlimit="10" stroke-width="3"/>
                  </g>
                </g>
              </g>
              <g id="HEAD" transform="translate(67.356)">
                <g id="NECK" transform="translate(5.856 30.351)">
                  <path id="Path_2823" data-name="Path 2823" d="M609.468,138.187s-3.345,14.967,6.686,20.539c0,0-9.225,1.592-21.016,11.3,0,0-9.076-7.642-10.508-12.74,0,0,9.225-3.183,8.279-19.109Z" transform="translate(-584.63 -138.18)" fill="#c36f0b"/>
                  <path id="Path_2824" data-name="Path 2824" d="M609.468,138.21H592.909c.955,15.922-8.279,19.109-8.279,19.109s18.413,0,23.621-16.416Z" transform="translate(-584.63 -138.203)" fill="#b65a18"/>
                </g>
                <path id="HEAD-2" data-name="HEAD" d="M612.83,60.784a19.209,19.209,0,0,1-16.669,9.592c-10.482,0-12.081-30.766,3.53-31.19,14.875-.4,12.959,17.2,12.959,17.2s2.678-1.557,3.651.064S612.83,60.784,612.83,60.784Z" transform="translate(-581.504 -30.573)" fill="#c36f0b"/>
                <g id="HAIR">
                  <path id="Path_2825" data-name="Path 2825" d="M606.008,44.44s-.169,5.326-7.543,5.245c-6.4-.07-9.913,3.554-10.255,6.163" transform="translate(-581.568 -34.678)" fill="none" stroke="#3f4d79" stroke-linecap="round" stroke-miterlimit="10" stroke-width="3"/>
                  <path id="Path_2826" data-name="Path 2826" d="M602.629,20.278c0,5.8-7,10.82-14.76,14.224a4.827,4.827,0,0,1-2.141.174,18.269,18.269,0,0,0,3.569-4.468s4.417-2.754,3.462-4.338-3.651-.066-3.651-.066,1.342-12.267-6.87-16.078c-.064.119-2.2,3.879-8.5,4.079-6,.187-7.633,2.473-8.318,4.863-.022.083-.044.165-.064.248a26.818,26.818,0,0,0-.545,9.717l-.035-.013c-.582-.707-8.536-10.787-6.46-16.192C560.571,6.552,574.989-1.735,586.531.316,592.978,1.465,602.627,17.227,602.629,20.278Z" transform="translate(-557.971 0.003)" fill="#3f4d79"/>
                </g>
              </g>
            </g>
            <g id="COMPUTER" transform="translate(0 38.127)">
              <g id="COMPUTER-2" data-name="COMPUTER">
                <path id="Path_2827" data-name="Path 2827" d="M122.119,239.508H33.657a5.8,5.8,0,0,1-5.491-3.954L9.416,179.727a4.079,4.079,0,0,1,3.868-5.377h88.463a5.8,5.8,0,0,1,5.491,3.954l18.738,55.815a4.079,4.079,0,0,1-3.857,5.39Z" transform="translate(-7.19 -174.181)" fill="#c7bfff"/>
                <path id="Path_2828" data-name="Path 2828" d="M112.945,249.457H24.48a5.8,5.8,0,0,1-5.491-3.954L.246,189.687a4.079,4.079,0,0,1,3.866-5.377H92.573a5.8,5.8,0,0,1,5.491,3.954L116.8,244.08a4.079,4.079,0,0,1-3.859,5.377Z" transform="translate(-0.034 -181.953)" fill="#fff"/>
                <path id="Path_2829" data-name="Path 2829" d="M122.119,238.727H33.657a5.8,5.8,0,0,1-5.491-3.954L9.416,178.957a4.079,4.079,0,0,1,3.868-5.377h88.463a5.8,5.8,0,0,1,5.491,3.954l18.747,55.817a4.079,4.079,0,0,1-3.866,5.377Z" transform="translate(-7.19 -173.58)" fill="none" stroke="#6562cf" stroke-miterlimit="10" stroke-width="2"/>
                <path id="Path_2830" data-name="Path 2830" d="M321.315,390.53l6.73,16.748H313.5S316.327,394.176,321.315,390.53Z" transform="translate(-244.648 -342.878)" fill="#e2e2ff"/>
                <path id="Path_2831" data-name="Path 2831" d="M243.162,430.913c-28.64,0-16.6-30.647-10.9-37.013H210.219c-5.693,6.37-21.1,38.7,7.536,38.7h25.407Z" transform="translate(-156.822 -345.507)" fill="#fff" stroke="#6562cf" stroke-miterlimit="10" stroke-width="2"/>
                <ellipse id="Ellipse_183" data-name="Ellipse 183" cx="4.186" cy="5.274" rx="4.186" ry="5.274" transform="translate(50.874 31.696) rotate(-57.74)" fill="#e2e2ff"/>
                <ellipse id="Ellipse_184" data-name="Ellipse 184" cx="4.186" cy="5.274" rx="4.186" ry="5.274" transform="translate(52.281 30.509) rotate(-57.74)" fill="none" stroke="#6562cf" stroke-miterlimit="10" stroke-width="2"/>
              </g>
              <g id="TABLE" transform="translate(20.584 87.088)">
                <path id="Path_2832" data-name="Path 2832" d="M93.75,570.07H224.917a3.382,3.382,0,0,1,3.492,3.26h0a3.381,3.381,0,0,1-3.492,3.257H93.75Z" transform="translate(-93.75 -570.07)" fill="#fff"/>
                <path id="Path_2833" data-name="Path 2833" d="M93.75,570.07H224.917a3.382,3.382,0,0,1,3.492,3.26h0a3.381,3.381,0,0,1-3.492,3.257H93.75" transform="translate(-93.75 -570.07)" fill="none" stroke="#6562cf" stroke-miterlimit="10" stroke-width="2"/>
              </g>
            </g>
          </g>
        </g>
      </g>
    </g>
  </g>
</svg>
