<svg xmlns="http://www.w3.org/2000/svg" width="56.505" height="56.505" viewBox="0 0 56.505 56.505">
  <g id="palette" transform="translate(-1.745 7)">
    <path id="Path_259" data-name="Path 259" d="M31.253,3a28.253,28.253,0,0,0,0,56.505A4.828,4.828,0,0,0,35.961,54.8a4.03,4.03,0,0,0-1.256-3.139,5.577,5.577,0,0,1-1.256-3.139,4.828,4.828,0,0,1,4.709-4.709h5.651a15.543,15.543,0,0,0,15.7-15.7C59.505,14.3,46.948,3,31.253,3ZM13.987,31.253a4.709,4.709,0,0,1,0-9.418,4.709,4.709,0,1,1,0,9.418ZM23.4,18.7A4.828,4.828,0,0,1,18.7,13.987,4.828,4.828,0,0,1,23.4,9.278a4.828,4.828,0,0,1,4.709,4.709A4.828,4.828,0,0,1,23.4,18.7Zm15.7,0a4.828,4.828,0,0,1-4.709-4.709,4.709,4.709,0,0,1,9.418,0A4.828,4.828,0,0,1,39.1,18.7Zm9.418,12.557a4.709,4.709,0,1,1,4.709-4.709A4.828,4.828,0,0,1,48.518,31.253Z" transform="translate(-1.255 -10)" fill="#943ebc"/>
  </g>
</svg>
