<svg xmlns="http://www.w3.org/2000/svg" width="77.014" height="65.099" viewBox="0 0 77.014 65.099">
  <g id="plant-with-leaves" transform="translate(0 -42.422)">
    <path id="Path_2483" data-name="Path 2483" d="M54.728,50.56C46.5,52.72,43.64,59.805,44.115,62.766c.151-.091.3-.179.451-.274.723-.444,1.51-.863,2.327-1.3s1.686-.84,2.566-1.25c.443-.207.907-.388,1.366-.575l.692-.282c.3-.117.482-.166.728-.252l1.387-.462,1.435-.407c.959-.265,1.886-.5,2.788-.685,1.8-.41,3.5-.708,4.954-.934,2.919-.444,4.908-.529,4.908-.529l-1.251.535c-.8.333-1.941.774-3.316,1.3-.692.252-1.435.525-2.222.814s-1.622.574-2.481.878-1.725.613-2.619.932c-.874.3-1.786.644-2.7,1-.853.319-1.738.744-2.607,1.088-.863.393-2.342.907-3.178,1.264-1.009.423-1.647.652-2.288.991-7.178,4.189-10.359,11.6-12.3,19.451-.344-7.371-1.891-14.523-7.212-19.8a.185.185,0,0,0,.017-.009q-1.081-1.012-2.24-2.178c-.633-.653-1.3-1.3-1.953-1.993-.668-.651-1.325-1.38-1.995-2-.714-.675-1.419-1.343-2.116-1.953-.7-.631-1.391-1.254-2.062-1.859s-1.336-1.2-1.958-1.758-1.2-1.105-1.741-1.6c-1.07-1.009-1.96-1.855-2.57-2.469l-.949-.973s1.8.838,4.333,2.362c1.261.766,2.711,1.687,4.223,2.754.762.519,1.529,1.088,2.314,1.7.386.307.779.613,1.168.922l1.107.957c.194.175.346.287.576.511l.535.526c.356.349.713.7,1.042,1.053.663.713,1.312,1.423,1.9,2.134s1.155,1.4,1.654,2.086c.106.148.205.282.311.425,1.573-2.554,1.635-10.195-5.148-15.335C14.6,41.982,4.31,44.491,0,42.422c4.352,6.658,3.517,11.1,10.828,18.409,4.886,4.888,9.449,5.191,12.523,4.341,6.252,6.018,7.228,15.193,7.231,23.973a3.7,3.7,0,0,0-2.314-.925,5.552,5.552,0,0,0-5.256,3.454c-5.57-1.9-9.269,2.511-9.59,6.222-2.65-.986-6.012,2.063-6.012,4.711a4.851,4.851,0,0,0,4.656,4.842l41,.072s4.368-2.355,4.368-4.916a4.863,4.863,0,0,0-4.86-4.864,4.791,4.791,0,0,0-1.072.128c.023-.188-.469-8.444-7.642-5.128-.558-2.583-1.289-4.521-5.6-4.521a6.7,6.7,0,0,0-4.48,1.554c1.795-9.131,4.569-18.67,12.653-23.388a.919.919,0,0,0,.2-.178c2.5,2,6.868,3.554,13.352.861,9.544-3.964,10.467-8.39,17.031-12.881C72.245,54.455,63.688,48.208,54.728,50.56ZM32.385,91.311l.268-.269c-.135.21-.218.362-.218.362S32.408,91.352,32.385,91.311Z" fill="#044b3a"/>
  </g>
</svg>
