<svg id="profile" xmlns="http://www.w3.org/2000/svg" width="41.243" height="49.498" viewBox="0 0 41.243 49.498">
  <g id="Layer_1" data-name="Layer 1" transform="translate(0 0)">
    <g id="account">
      <path id="Path_2398" data-name="Path 2398" d="M41.111,47.632a21.041,21.041,0,0,0-40.949,0A5.562,5.562,0,0,0,1.227,52.38a5.747,5.747,0,0,0,4.522,2.181H35.506a5.73,5.73,0,0,0,4.522-2.19,5.554,5.554,0,0,0,1.082-4.74Z" transform="translate(-0.012 -5.063)"/>
      <path id="Path_2399" data-name="Path 2399" d="M22.436,22.333A11.166,11.166,0,1,0,11.27,11.166,11.166,11.166,0,0,0,22.436,22.333Z" transform="translate(-1.825)"/>
    </g>
  </g>
</svg>
