<svg xmlns="http://www.w3.org/2000/svg" width="40.53" height="88.377" viewBox="0 0 40.53 88.377">
  <g id="Group_778" data-name="Group 778" transform="translate(1076.62 1418.119)">
    <g id="rocket-space-ship" transform="translate(-1064.369 -1342.345)">
      <g id="Group_318" data-name="Group 318" transform="translate(0 0)">
        <path id="Path_2472" data-name="Path 2472" d="M218.749,458.606l-.965,8.837,3.327-1.833,2.538,5.6,2.935-5.776,2.587,5.558,3.018-5.122,3.315,2.188-.271-9.45Z" transform="translate(-217.784 -458.606)" fill="#e58e2c"/>
      </g>
    </g>
    <g id="rocket-space-ship-1" transform="translate(-1076.62 -1418.118)">
      <g id="Group_317" data-name="Group 317" transform="translate(0)">
        <path id="Path_2467" data-name="Path 2467" d="M150.529,63.012l-.109,6.514h10.53l-8.342-24.714V18.366h-.046v-.773h.041L140.659,0l-11.95,17.593h.027V44.179l.008.377L120.42,69.525h10.614l-.144-6.833,4.3.069-2.164,11.9h17.817L147.99,62.969Zm-7.04-18.526h-4.978l-3,16.5-4-.066V19.371h18.422v41.85l-2.378-.04Z" transform="translate(-120.42)" fill="#e58e2c"/>
        <path id="Path_2468" data-name="Path 2468" d="M224.712,173.166a6.347,6.347,0,1,0,6.347,6.347A6.357,6.357,0,0,0,224.712,173.166Zm0,10.913a4.563,4.563,0,1,1,4.563-4.565A4.571,4.571,0,0,1,224.712,184.079Z" transform="translate(-204.482 -148.625)" fill="#e58e2c"/>
      </g>
    </g>
  </g>
</svg>
