<svg xmlns="http://www.w3.org/2000/svg" width="34.761" height="34.761" viewBox="0 0 34.761 34.761">
  <path id="Shape" d="M0,17.38A17.381,17.381,0,1,1,17.38,34.761,17.4,17.4,0,0,1,0,17.38ZM17.38,32.087a14.649,14.649,0,0,0,9.83-3.777,7.715,7.715,0,0,0-2.534-1.338c-.2-.072-.407-.144-.672-.233l-.688-.231c-2.487-.839-3.607-1.518-4.088-3.106a3.344,3.344,0,0,1-.1-.4,4.222,4.222,0,0,1,.245-2.492A3.785,3.785,0,0,1,20.425,19.1,5.032,5.032,0,0,0,22.283,15a5.049,5.049,0,0,0-4.9-5.2,5,5,0,0,0-4.9,5.2,5.067,5.067,0,0,0,1.782,4.054A4.061,4.061,0,0,1,15.28,20.3a3.965,3.965,0,0,1,.353,2.74,2.054,2.054,0,0,1-.08.3c-.422,1.564-1.51,2.235-3.9,3.051l-.794.268c-.308.1-.549.189-.78.274a7.687,7.687,0,0,0-2.53,1.374A14.645,14.645,0,0,0,17.38,32.087ZM24.957,15a7.7,7.7,0,0,1-2.779,6.109,1.2,1.2,0,0,0-.345.454,1.654,1.654,0,0,0-.077.94c.011.055.018.082.022.1.138.451.727.809,2.392,1.37l.685.229c.281.095.507.172.727.252a10.063,10.063,0,0,1,3.45,1.887,14.706,14.706,0,1,0-23.3,0,10.112,10.112,0,0,1,3.425-1.917c.257-.095.518-.186.847-.3l.789-.266c1.539-.526,2.086-.863,2.217-1.332,0,.011,0-.01.013-.059a1.371,1.371,0,0,0-.1-.926,1.613,1.613,0,0,0-.422-.483A7.748,7.748,0,0,1,9.8,15,7.665,7.665,0,0,1,17.38,7.13,7.721,7.721,0,0,1,24.957,15Z" fill="#1b2a3b"/>
</svg>
