<svg xmlns="http://www.w3.org/2000/svg" width="34.74" height="34.74" viewBox="0 0 34.74 34.74">
  <path id="Shape" d="M12.468,34.691a17.941,17.941,0,0,1-3.87-1.6,1.347,1.347,0,0,1-.682-1.253l.236-3.685a.269.269,0,0,0-.079-.207L6.813,26.68a.266.266,0,0,0-.189-.077H6.606l-3.7.229c-.027,0-.056,0-.083,0a1.337,1.337,0,0,1-1.166-.685A17.952,17.952,0,0,1,.049,22.271a1.345,1.345,0,0,1,.4-1.365l2.779-2.453a.265.265,0,0,0,.09-.2V16.489a.27.27,0,0,0-.09-.2L.452,13.834a1.343,1.343,0,0,1-.4-1.365A18.031,18.031,0,0,1,1.658,8.588a1.337,1.337,0,0,1,1.166-.682c.027,0,.056,0,.083,0l3.7.229.018,0a.273.273,0,0,0,.189-.079L8.06,6.814a.268.268,0,0,0,.077-.207l-.229-3.7a1.344,1.344,0,0,1,.68-1.25A18.031,18.031,0,0,1,12.468.05a1.339,1.339,0,0,1,1.365.4l2.453,2.779a.27.27,0,0,0,.2.09H18.25a.265.265,0,0,0,.2-.09L20.906.452a1.34,1.34,0,0,1,1.365-.4A17.952,17.952,0,0,1,26.15,1.659a1.342,1.342,0,0,1,.682,1.25l-.229,3.7a.269.269,0,0,0,.077.207L27.926,8.06a.276.276,0,0,0,.191.079l.016,0,3.7-.229c.029,0,.056,0,.083,0a1.341,1.341,0,0,1,1.166.682,17.951,17.951,0,0,1,1.609,3.881,1.342,1.342,0,0,1-.4,1.365l-2.779,2.453a.271.271,0,0,0-.091.2v1.762a.271.271,0,0,0,.091.2l2.779,2.453a1.342,1.342,0,0,1,.4,1.365,17.872,17.872,0,0,1-1.609,3.879,1.339,1.339,0,0,1-1.166.685c-.027,0-.055,0-.083,0l-3.7-.229h-.018a.266.266,0,0,0-.189.077L26.68,27.927a.274.274,0,0,0-.077.207l.229,3.7a1.326,1.326,0,0,1-.682,1.25,17.846,17.846,0,0,1-3.87,1.606,1.33,1.33,0,0,1-1.367-.4L18.47,31.509a.266.266,0,0,0-.2-.091H16.489a.271.271,0,0,0-.2.091l-2.453,2.779a1.339,1.339,0,0,1-1.365.4ZM8.7,24.79l1.263,1.261a2.939,2.939,0,0,1,.855,2.269l-.18,2.82a14.926,14.926,0,0,0,1.762.728l1.88-2.129a2.944,2.944,0,0,1,2.206-.995H18.27a2.94,2.94,0,0,1,2.208,1l1.869,2.123a15,15,0,0,0,1.763-.732L23.933,28.3a2.946,2.946,0,0,1,.857-2.264l1.245-1.245a2.967,2.967,0,0,1,2.081-.862q.091,0,.183,0l2.835.176a14.93,14.93,0,0,0,.735-1.773l-2.129-1.88a2.944,2.944,0,0,1-.995-2.206V16.489a2.944,2.944,0,0,1,.995-2.206l2.129-1.88a14.749,14.749,0,0,0-.735-1.773l-2.835.176c-.059,0-.12.006-.18.006a2.927,2.927,0,0,1-2.084-.863L24.79,8.7a2.94,2.94,0,0,1-.857-2.262l.176-2.835a15.594,15.594,0,0,0-1.773-.736L20.456,5A2.944,2.944,0,0,1,18.25,6H16.489A2.944,2.944,0,0,1,14.283,5L12.4,2.87a15.689,15.689,0,0,0-1.773.736l.176,2.835A2.942,2.942,0,0,1,9.95,8.7L8.7,9.95a2.921,2.921,0,0,1-2.082.863c-.059,0-.119,0-.18-.006L3.606,10.63A15.594,15.594,0,0,0,2.87,12.4L5,14.283a2.944,2.944,0,0,1,.995,2.206v1.762A2.944,2.944,0,0,1,5,20.457L2.87,22.337a15.447,15.447,0,0,0,.736,1.773l2.835-.176c.063,0,.124,0,.184,0A2.92,2.92,0,0,1,8.7,24.79Zm.189-7.43a8.468,8.468,0,1,1,8.468,8.468A8.478,8.478,0,0,1,8.892,17.361Zm2.674,0a5.793,5.793,0,1,0,5.793-5.793A5.8,5.8,0,0,0,11.567,17.361Z" fill="#1b2a3b"/>
</svg>
