<svg xmlns="http://www.w3.org/2000/svg" width="194" height="54" viewBox="0 0 194 54">
  <g id="Group_772" data-name="Group 772" transform="translate(-91 -549)">
    <g id="Rectangle_33" data-name="Rectangle 33" transform="translate(91 549)" fill="#fff" stroke="rgba(112,112,112,0.2)" stroke-width="1">
      <rect width="54" height="54" rx="10" stroke="none"/>
      <rect x="0.5" y="0.5" width="53" height="53" rx="9.5" fill="none"/>
    </g>
    <g id="Rectangle_34" data-name="Rectangle 34" transform="translate(161 549)" fill="#fff" stroke="rgba(112,112,112,0.2)" stroke-width="1">
      <rect width="54" height="54" rx="10" stroke="none"/>
      <rect x="0.5" y="0.5" width="53" height="53" rx="9.5" fill="none"/>
    </g>
    <path id="Path_2048" data-name="Path 2048" d="M261.221,252.632h-3.827v-2.793c0-.856.886-1.055,1.3-1.055h2.472v-3.769L258.332,245c-3.865,0-4.748,2.81-4.748,4.612v3.02h-2.8v3.884h2.8V267h3.81V256.516h3.236Z" transform="translate(-67.779 320)" fill="#3b5998"/>
    <g id="Rectangle_35" data-name="Rectangle 35" transform="translate(231 549)" fill="#fff" stroke="rgba(112,112,112,0.2)" stroke-width="1">
      <rect width="54" height="54" rx="10" stroke="none"/>
      <rect x="0.5" y="0.5" width="53" height="53" rx="9.5" fill="none"/>
    </g>
    <path id="Path_2139" data-name="Path 2139" d="M327,248.689a7.546,7.546,0,0,1-2.519.769,5.155,5.155,0,0,0,1.892-2.655,7.026,7.026,0,0,1-2.832,1.08l0,0a4.382,4.382,0,0,0-3.282-1.511,4.723,4.723,0,0,0-4.539,4.888,5.206,5.206,0,0,0,.117,1.089h0a12.764,12.764,0,0,1-9.614-5.071,5.12,5.12,0,0,0,1.376,6.458,2.764,2.764,0,0,1-1.981-.551,4.672,4.672,0,0,0,3.5,4.775,3.312,3.312,0,0,1-1.889.153,4.368,4.368,0,0,0,4.056,3.319A7.113,7.113,0,0,1,305,263.463a12.905,12.905,0,0,0,7.1,2.162c7.322,0,13.009-6.39,12.7-14.274,0-.009,0-.018,0-.027s0-.042,0-.061,0-.049,0-.074A8.182,8.182,0,0,0,327,248.689Z" transform="translate(-58 319.625)" fill="#38a1f3"/>
    <g id="Group_90" data-name="Group 90" transform="translate(107 565)">
      <path id="Path_2140" data-name="Path 2140" d="M4.876,145.622,4.11,148.48l-2.8.059a11.019,11.019,0,0,1-.081-10.272h0l2.492.457L4.814,141.2a6.565,6.565,0,0,0,.062,4.42Z" transform="translate(0 -132.327)" fill="#fbbb00"/>
      <path id="Path_2141" data-name="Path 2141" d="M272.194,208.176a11,11,0,0,1-3.921,10.633h0l-3.139-.16-.444-2.773a6.556,6.556,0,0,0,2.821-3.348h-5.882v-4.352h10.566Z" transform="translate(-250.386 -199.231)" fill="#518ef8"/>
      <path id="Path_2142" data-name="Path 2142" d="M47.084,315.692h0a11,11,0,0,1-16.575-3.365l3.565-2.918a6.542,6.542,0,0,0,9.427,3.35Z" transform="translate(-29.198 -296.114)" fill="#28b446"/>
      <path id="Path_2143" data-name="Path 2143" d="M45.415,2.532,41.852,5.45a6.541,6.541,0,0,0-9.644,3.425L28.625,5.941h0A11,11,0,0,1,45.415,2.532Z" transform="translate(-27.394)" fill="#f14336"/>
    </g>
  </g>
</svg>
