<svg xmlns="http://www.w3.org/2000/svg" width="63.923" height="45.966" viewBox="0 0 63.923 45.966">
  <g id="Layer_2" data-name="Layer 2" transform="translate(-6.7 1.659)">
    <g id="Layer_1" data-name="Layer 1" transform="translate(6.7 -1.659)">
      <g id="megaphone" transform="translate(0 0)">
        <path id="Path_2551" data-name="Path 2551" d="M38.368.465a1.506,1.506,0,0,0-1.8-.279L14.851,11.771H3.674C1.643,11.778,0,14.039,0,16.825V29.141c0,2.786,1.643,5.047,3.674,5.054H14.851L36.565,45.781a1.534,1.534,0,0,0,.708.186c1.071,0,1.939-1.191,1.939-2.66V2.66A3.037,3.037,0,0,0,38.368.465Z" transform="translate(0 -0.001)"/>
        <path id="Path_2552" data-name="Path 2552" d="M54.044,4.317a3.088,3.088,0,1,0-4.323,4.36,16.845,16.845,0,0,1,0,23.836,3.088,3.088,0,0,0,4.323,4.36A23.02,23.02,0,0,0,54.044,4.317Z" transform="translate(3.137 2.795)"/>
        <path id="Path_2553" data-name="Path 2553" d="M48.892,11.859a3.088,3.088,0,0,0-4.36,4.36,3.582,3.582,0,0,1,0,5.039,3.075,3.075,0,0,0,0,4.36,3.026,3.026,0,0,0,2.174.9,3.075,3.075,0,0,0,2.186-.9,9.744,9.744,0,0,0,0-13.758Z" transform="translate(1.978 4.651)"/>
      </g>
    </g>
  </g>
</svg>
